<?xml version="1.0" encoding="utf-8"?>
<!-- Generator: Adobe Illustrator 18.0.0, SVG Export Plug-In . SVG Version: 6.00 Build 0)  -->
<!DOCTYPE svg PUBLIC "-//W3C//DTD SVG 1.1//EN" "http://www.w3.org/Graphics/SVG/1.1/DTD/svg11.dtd">
<svg version="1.1" id="Calque_1" xmlns="http://www.w3.org/2000/svg" xmlns:xlink="http://www.w3.org/1999/xlink" x="0px" y="0px"
	 viewBox="0 0 595.3 841.9" enable-background="new 0 0 595.3 841.9" xml:space="preserve">
<g id="Groupe_107" transform="translate(2425.015 458)">
	<g id="Groupe_107-2" transform="translate(-0.015)">
		<path id="Tracé_86" fill="#C7C7C7" d="M-1834.6-361.9c-3.6-4-8.7-6.2-14-6.1h-0.5c-45.8,24.2-152.7,41.6-278.3,41.6
			c-125.1,0-232.1-17.3-277.9-41.6h-0.5c-5.3-0.1-10.4,2.1-14,6.1c-3.7,4-5.6,9.5-5.1,14.9l34.1,402.6
			c14.7,145.5,144.5,251.5,289.9,236.9c125.2-12.6,224.3-111.6,236.9-236.9l34.1-402.6C-1829.1-352.4-1830.8-357.9-1834.6-361.9z
			 M-2308.2-129.3c4.2-19.6,35.5-29.4,70.1-21.9s59.3,29,55.1,48.6c-4.2,19.6-35.5,29.4-70.1,21.9S-2312.4-109.7-2308.2-129.3
			L-2308.2-129.3z M-2008.8,85.5c-20.6,65.4-90.2,101.7-155.6,81.2c-38.7-12.2-69-42.5-81.2-81.2c-1.3-4.8-0.5-9.9,2.3-14
			c3-4,7.6-6.4,12.6-6.5c0,0,78.5,36.4,107,36.4c28.5,0,99.5-36.4,99.5-36.4c5-0.1,9.8,2.4,12.6,6.5
			C-2008.4,75.4-2007.4,80.7-2008.8,85.5L-2008.8,85.5z M-2001.8-80.7c-34.6,7.5-65.8-2.3-70.1-21.9c-4.2-19.6,20.6-41.1,55.1-48.6
			s65.8,2.3,70.1,21.9S-1967.3-88.2-2001.8-80.7L-2001.8-80.7z"/>
	</g>
</g>
</svg>
