<svg xmlns="http://www.w3.org/2000/svg" viewBox="2425 458 46.687 51.9">
  <defs>
    <style>
      .cls-1 {
        fill: #c8c7c7;
      }
    </style>
  </defs>
  <g id="Groupe_107" data-name="Groupe 107" transform="translate(2425.015 458)">
    <g id="Groupe_107-2" data-name="Groupe 107" transform="translate(-0.015)">
      <path id="Tracé_86" data-name="Tracé 86" class="cls-1" d="M46.287.476A1.445,1.445,0,0,0,45.188,0h-.037c-3.589,1.9-11.977,3.26-21.83,3.26C13.506,3.26,5.118,1.9,1.529,0H1.492a1.462,1.462,0,0,0-1.1.476,1.539,1.539,0,0,0-.4,1.172L2.664,33.22a20.762,20.762,0,0,0,41.315,0L46.653,1.648A1.386,1.386,0,0,0,46.287.476ZM9.147,18.716c.33-1.538,2.784-2.307,5.494-1.721s4.652,2.271,4.322,3.809-2.784,2.307-5.494,1.721-4.652-2.271-4.322-3.809ZM32.625,35.565a9.733,9.733,0,0,1-18.57,0,1.311,1.311,0,0,1,.183-1.1,1.268,1.268,0,0,1,.989-.513s6.153,2.857,8.388,2.857,7.8-2.857,7.8-2.857a1.168,1.168,0,0,1,.989.513,1.191,1.191,0,0,1,.22,1.1Zm.549-13.039c-2.71.586-5.164-.183-5.494-1.721S29.292,17.581,32,16.995s5.164.183,5.494,1.721-1.612,3.223-4.322,3.809Zm0,0" transform="translate(0.015)"/>
    </g>
  </g>
</svg>
