<svg xmlns="http://www.w3.org/2000/svg" viewBox="1798 1845.276 19.656 16.324">
  <defs>
    <style>
      .cls-1 {
        fill: #fff;
      }
    </style>
  </defs>
  <path id="Tracé_419" data-name="Tracé 419" class="cls-1" d="M18.581,6.628H5.429L9.564,2.485a1.069,1.069,0,0,0,.312-.763A1.086,1.086,0,0,0,9.564.959L8.921.316A1.075,1.075,0,0,0,7.4.312L.312,7.4a1.09,1.09,0,0,0,0,1.526L7.4,16.012a1.06,1.06,0,0,0,.759.312,1.077,1.077,0,0,0,.759-.312l.643-.643a1.06,1.06,0,0,0,.312-.759,1.049,1.049,0,0,0-.312-.747L5.381,9.7H18.565a1.116,1.116,0,0,0,1.091-1.1V7.682A1.093,1.093,0,0,0,18.549,6.62" transform="translate(1798 1845.276)"/>
</svg>
