<svg xmlns="http://www.w3.org/2000/svg" viewBox="2428 683.536 40.048 52.764">
  <defs>
    <style>
      .cls-1 {
        fill: #c7c7c7;
      }

      .cls-2 {
        fill: #fff;
      }
    </style>
  </defs>
  <g id="Groupe_102" data-name="Groupe 102" transform="translate(2428 683.536)">
    <path id="Tracé_77" data-name="Tracé 77" class="cls-1" d="M37.111,0H2.937A2.862,2.862,0,0,0,0,2.937v46.89a2.883,2.883,0,0,0,2.937,2.937H37.111a2.883,2.883,0,0,0,2.937-2.937V2.937A2.862,2.862,0,0,0,37.111,0ZM3.9,4.872A.921.921,0,0,1,4.872,3.9a.921.921,0,0,1,.967.967V7.988l3.116-3.8a.966.966,0,0,1,1.469,1.254L7.809,8.6l3.618,5.481a.972.972,0,0,1-.287,1.361c0,.107-.179.179-.394.179a1.2,1.2,0,0,1-.788-.394L6.627,10.245l-.788.9v3.51a.921.921,0,0,1-.967.967.921.921,0,0,1-.967-.967ZM24.43,48.824l-19.522.107h0a.979.979,0,0,1-.967-.967v-29.3a.921.921,0,0,1,.967-.967.921.921,0,0,1,.967.967V47L24.43,46.89h0a.921.921,0,0,1,.967.967A.963.963,0,0,1,24.43,48.824Zm11.713-.967a.967.967,0,0,1-1.934,0V44.74l-3.116,3.8a1.18,1.18,0,0,1-.788.287,1.2,1.2,0,0,1-.573-.179.938.938,0,0,1-.107-1.361l2.651-3.116-3.654-5.481a.984.984,0,1,1,1.648-1.075L33.6,42.591l.788-.9V38.078a.967.967,0,1,1,1.934,0v9.779Zm0-13.755a.967.967,0,0,1-1.934,0V5.875H17.588a.921.921,0,0,1-.967-.967.921.921,0,0,1,.967-.967H35.176a.921.921,0,0,1,.967.967Z"/>
    <path id="Tracé_78" data-name="Tracé 78" class="cls-2" d="M44,63.109l.573,1.433a.765.765,0,0,1-.072.86,1.021,1.021,0,0,1-.788.466h-4.8a.89.89,0,0,1-.788-.466,1.028,1.028,0,0,1-.072-.86l.466-1.433a1.964,1.964,0,0,1-.9.143,4.5,4.5,0,0,1-3.26-1.433A4.037,4.037,0,0,1,33.185,58.7a4.513,4.513,0,0,1,2.149-3.4,3.654,3.654,0,0,1,1.9-.645,4.615,4.615,0,0,1-.251-1.612,4.419,4.419,0,0,1,1.612-3.4,4.089,4.089,0,0,1,3.654-.86,4.242,4.242,0,0,1,3.331,3.4,4.379,4.379,0,0,1-.143,2.472,3.783,3.783,0,0,1,1.9.716,4.343,4.343,0,0,1,2.149,3.4A3.9,3.9,0,0,1,48.3,61.891a4.628,4.628,0,0,1-3.26,1.433C44.648,63.216,44.326,63.18,44,63.109Z" transform="translate(-21.293 -31.228)"/>
  </g>
</svg>
