<?xml version="1.0" encoding="utf-8"?>
<!-- Generator: Adobe Illustrator 18.0.0, SVG Export Plug-In . SVG Version: 6.00 Build 0)  -->
<!DOCTYPE svg PUBLIC "-//W3C//DTD SVG 1.1//EN" "http://www.w3.org/Graphics/SVG/1.1/DTD/svg11.dtd">
<svg version="1.1" id="Calque_1" xmlns="http://www.w3.org/2000/svg" xmlns:xlink="http://www.w3.org/1999/xlink" x="0px" y="0px"
	 viewBox="0 0 595.3 841.9" enable-background="new 0 0 595.3 841.9" xml:space="preserve">
<g id="Groupe_102" transform="translate(2428 683.536)">
	<path id="Tracé_77" fill="#C7C7C7" d="M-1876.4-650.7h-508c-23.5-0.6-43,17.9-43.7,41.4c0,0.8,0,1.5,0,2.3v697
		c-0.4,23.7,18.4,43.2,42,43.7c0.5,0,1.1,0,1.6,0h508c23.7,0.4,43.2-18.4,43.7-42c0-0.5,0-1.1,0-1.6v-697
		c0.6-23.5-17.9-43-41.4-43.7C-1874.9-650.8-1875.6-650.8-1876.4-650.7z M-2370-578.3c-0.4-7.5,5.3-14,12.9-14.4c0.5,0,1,0,1.6,0
		c7.6-0.4,14,5.4,14.4,13c0,0.5,0,0.9,0,1.4v46.4l46.3-56.5c5.3-5.9,14.4-6.4,20.3-1.1c5.7,5.1,6.4,13.8,1.6,19.8l-38.9,46.9
		l53.8,81.5c4.4,6.6,2.7,15.6-4,20c-0.1,0.1-0.2,0.1-0.3,0.2c0,1.6-2.7,2.7-5.9,2.7c-4.5-0.4-8.7-2.5-11.7-5.9l-49.5-74.1
		l-11.7,13.4v52.2c0.4,7.6-5.4,14-13,14.4c-0.5,0-0.9,0-1.4,0c-7.6,0.4-14-5.4-14.4-13c0-0.5,0-0.9,0-1.4L-2370-578.3z M-2064.9,75
		l-290.2,1.6l0,0c-7.9-0.1-14.3-6.5-14.4-14.4v-435.5c-0.4-7.6,5.4-14,13-14.4c0.5,0,0.9,0,1.4,0c7.6-0.4,14,5.4,14.4,13
		c0,0.5,0,0.9,0,1.4V47.9l275.8-1.6l0,0c7.6-0.4,14,5.4,14.4,13c0,0.5,0,0.9,0,1.4c0,7.9-6.3,14.3-14.3,14.4
		C-2064.8,75-2064.8,75-2064.9,75z M-1890.8,60.6c0,7.9-6.4,14.4-14.4,14.4s-14.4-6.4-14.4-14.4V14.3l-46.3,56.5
		c-3.3,2.8-7.4,4.3-11.7,4.3c-3-0.2-5.9-1.1-8.5-2.7c-6-4.8-7-13.6-2.1-19.6c0.2-0.2,0.4-0.4,0.5-0.6l39.4-46.3l-54.3-81.5
		c-4.5-6.7-2.8-15.8,3.9-20.3c6.7-4.5,15.8-2.8,20.3,3.9c0.1,0.2,0.2,0.3,0.3,0.5l49.5,74l11.7-13.4v-53.7c0-7.9,6.4-14.4,14.4-14.4
		s14.4,6.4,14.4,14.4V60.6L-1890.8,60.6z M-1890.8-143.8c0,7.9-6.4,14.4-14.4,14.4s-14.4-6.4-14.4-14.4v-419.6h-247.1
		c-7.6,0.4-14-5.4-14.4-13c0-0.5,0-0.9,0-1.4c-0.4-7.6,5.4-14,13-14.4c0.5,0,0.9,0,1.4,0h261.4c7.6-0.4,14,5.4,14.4,13
		c0,0.5,0,0.9,0,1.4V-143.8z"/>
	<path id="Tracé_78" fill="#FFFFFF" d="M-2090.5-176.8l8.5,21.3c2.3,4.1,1.9,9.1-1.1,12.8c-2.6,4-6.9,6.6-11.7,6.9h-71.3
		c-4.9,0-9.4-2.6-11.7-6.9c-2.2-3.9-2.6-8.6-1.1-12.8l6.9-21.3c-4.2,1.7-8.8,2.5-13.4,2.1c-18.4-0.1-35.9-7.8-48.5-21.3
		c-12.2-12.2-18.6-29.1-17.5-46.4c2.1-20.9,14-39.6,31.9-50.5c8.3-5.8,18.1-9.1,28.2-9.6c-2.7-7.7-3.9-15.8-3.7-24
		c0.1-19.6,8.8-38.1,24-50.5c15-12.8,35.2-17.6,54.3-12.8c25.3,5.1,44.9,25.1,49.5,50.5c2.8,12.2,2.1,25-2.1,36.7
		c10.2,0.9,20,4.6,28.2,10.6c18.3,10.6,30.2,29.5,31.9,50.5c1.4,17.3-5.1,34.3-17.6,46.4c-12.7,13.3-30.1,20.9-48.5,21.3
		C-2080.8-175.3-2085.6-175.8-2090.5-176.8z"/>
</g>
</svg>
