<svg xmlns="http://www.w3.org/2000/svg" viewBox="2431 562.621 33.853 63.579">
  <defs>
    <style>
      .cls-1 {
        fill: #c8c7c7;
      }
    </style>
  </defs>
  <g id="Groupe_108" data-name="Groupe 108" transform="translate(2430.9 562.621)">
    <g id="Groupe_108-2" data-name="Groupe 108" transform="translate(0.1)">
      <path id="Tracé_87" data-name="Tracé 87" class="cls-1" d="M32.286,52.585a7.372,7.372,0,0,0-.357-8.334C28.6,39.806,23.952,26.67,27.048,17.7h3.016V0H26.452V3.612H22.841V0H18.793V3.612H15.181V0h-3.85V3.612H7.72V0H3.91V17.7H7.085C10.181,26.67,5.5,39.806,2.2,44.251a7.477,7.477,0,0,0-.437,8.374A1.76,1.76,0,0,0,.1,54.292v3.85a1.909,1.909,0,0,0,1.865,1.826h.159v3.612H31.889V59.967h.317a1.8,1.8,0,0,0,1.746-1.826v-3.85a1.864,1.864,0,0,0-1.667-1.707Zm0,0" transform="translate(-0.1)"/>
    </g>
  </g>
</svg>
