<svg xmlns="http://www.w3.org/2000/svg" xmlns:xlink="http://www.w3.org/1999/xlink" viewBox="3606 575.779 45.021 45.021">
  <defs>
    <style>
      .cls-1 {
        fill: url(#linear-gradient);
      }
    </style>
    <linearGradient id="linear-gradient" y1="0.5" x2="1.001" y2="0.5" gradientUnits="objectBoundingBox">
      <stop offset="0" stop-color="#3eb59d"/>
      <stop offset="0.759" stop-color="#1187b8"/>
      <stop offset="1" stop-color="#0e77ba"/>
    </linearGradient>
  </defs>
  <g id="Groupe_97" data-name="Groupe 97" transform="translate(3606 575.779)">
    <path id="Tracé_72" data-name="Tracé 72" class="cls-1" d="M38.107,0H6.913A6.927,6.927,0,0,0,0,6.913V38.107a6.906,6.906,0,0,0,6.913,6.913H38.107a6.927,6.927,0,0,0,6.913-6.913V6.913A6.885,6.885,0,0,0,38.107,0ZM11.923,37.707a4.442,4.442,0,1,1,4.442-4.442,4.44,4.44,0,0,1-4.442,4.442Zm0-21.475a4.442,4.442,0,1,1,4.442-4.442,4.44,4.44,0,0,1-4.442,4.442ZM22.51,26.986a4.442,4.442,0,1,1,4.442-4.442,4.44,4.44,0,0,1-4.442,4.442ZM33.131,37.707a4.442,4.442,0,1,1,4.442-4.442,4.44,4.44,0,0,1-4.442,4.442Zm0-21.475a4.442,4.442,0,1,1,4.442-4.442,4.44,4.44,0,0,1-4.442,4.442Zm0,0"/>
  </g>
</svg>
