<svg xmlns="http://www.w3.org/2000/svg" viewBox="2271 575.779 45.021 45.021">
  <defs>
    <style>
      .cls-1 {
        fill: #c7c7c7;
      }
    </style>
  </defs>
  <g id="Groupe_97" data-name="Groupe 97" transform="translate(2271 575.779)">
    <path id="Tracé_72" data-name="Tracé 72" class="cls-1" d="M38.107,0H6.913A6.927,6.927,0,0,0,0,6.913V38.107a6.906,6.906,0,0,0,6.913,6.913H38.107a6.927,6.927,0,0,0,6.913-6.913V6.913A6.885,6.885,0,0,0,38.107,0ZM11.923,37.707a4.442,4.442,0,1,1,4.442-4.442,4.44,4.44,0,0,1-4.442,4.442Zm0-21.475a4.442,4.442,0,1,1,4.442-4.442,4.44,4.44,0,0,1-4.442,4.442ZM22.51,26.986a4.442,4.442,0,1,1,4.442-4.442,4.44,4.44,0,0,1-4.442,4.442ZM33.131,37.707a4.442,4.442,0,1,1,4.442-4.442,4.44,4.44,0,0,1-4.442,4.442Zm0-21.475a4.442,4.442,0,1,1,4.442-4.442,4.44,4.44,0,0,1-4.442,4.442Zm0,0"/>
  </g>
</svg>
