<?xml version="1.0" encoding="utf-8"?>
<!-- Generator: Adobe Illustrator 18.0.0, SVG Export Plug-In . SVG Version: 6.00 Build 0)  -->
<!DOCTYPE svg PUBLIC "-//W3C//DTD SVG 1.1//EN" "http://www.w3.org/Graphics/SVG/1.1/DTD/svg11.dtd">
<svg version="1.1" id="Calque_1" xmlns="http://www.w3.org/2000/svg" xmlns:xlink="http://www.w3.org/1999/xlink" x="0px" y="0px"
	 viewBox="0 0 595.3 841.9" enable-background="new 0 0 595.3 841.9" xml:space="preserve">
<g id="Groupe_97" transform="translate(2271 575.779)">
	<path id="Tracé_72" fill="#C7C7C7" d="M-1767.1-452.5h-412.5c-50.4,0.1-91.3,41-91.4,91.4V51.4c-0.1,50.4,40.8,91.4,91.2,91.4
		c0.1,0,0.1,0,0.2,0h412.5c50.4-0.1,91.3-41,91.4-91.4v-412.5c0.2-50.3-40.4-91.2-90.7-91.4
		C-1766.6-452.5-1766.9-452.5-1767.1-452.5z M-2113.3,46.1c-32.4,0-58.7-26.3-58.7-58.7c0-32.4,26.3-58.7,58.7-58.7
		c32.4,0,58.7,26.3,58.7,58.7C-2054.6,19.8-2080.9,46.1-2113.3,46.1C-2113.3,46.1-2113.3,46.1-2113.3,46.1z M-2113.3-237.8
		c-32.4,0-58.7-26.3-58.7-58.7s26.3-58.7,58.7-58.7c32.4,0,58.7,26.3,58.7,58.7v0C-2054.6-264.2-2080.9-237.9-2113.3-237.8
		C-2113.3-237.8-2113.3-237.8-2113.3-237.8z M-1973.4-95.7c-32.4,0-58.7-26.3-58.7-58.7c0-32.4,26.3-58.7,58.7-58.7
		c32.4,0,58.7,26.3,58.7,58.7c0,0,0,0,0,0C-1914.6-122-1940.9-95.7-1973.4-95.7C-1973.3-95.7-1973.3-95.7-1973.4-95.7z
		 M-1832.9,46.1c-32.4,0-58.7-26.3-58.7-58.7s26.3-58.7,58.7-58.7c32.4,0,58.7,26.3,58.7,58.7C-1774.2,19.8-1800.5,46.1-1832.9,46.1
		C-1832.9,46.1-1832.9,46.1-1832.9,46.1z M-1832.9-237.8c-32.4,0-58.7-26.3-58.7-58.7s26.3-58.7,58.7-58.7
		c32.4,0,58.7,26.3,58.7,58.7C-1774.2-264.2-1800.5-237.9-1832.9-237.8C-1832.9-237.8-1832.9-237.8-1832.9-237.8z"/>
</g>
</svg>
