<svg xmlns="http://www.w3.org/2000/svg" viewBox="2265.498 795.999 54.602 68.552">
  <defs>
    <style>
      .cls-1 {
        fill: #c7c7c7;
      }
    </style>
  </defs>
  <path id="Tracé_82" data-name="Tracé 82" class="cls-1" d="M12.064,41.051c.177.044.31.044.444.089.044-.044.044-.089.089-.133a6.062,6.062,0,0,1,2.085-4.3,1.064,1.064,0,0,0,.31-.532c1.153-3.194,2.262-6.432,3.415-9.625a3.178,3.178,0,0,1,.488-.665.873.873,0,0,0,.177-.355c-.044-.843-.133-1.686-.222-2.573a6.565,6.565,0,0,1,.887-.044c.133-.532.089-.843-.532-1.02a2.2,2.2,0,0,1-1.286-1.375c-.133-.222-.222-.444-.355-.71-.488.355-.488.532-.089.887a.969.969,0,0,1,.133.222,2.578,2.578,0,0,1-.577,2.306,1.3,1.3,0,0,0-.31.532c-.31,1.419-.621,2.839-.887,4.258a2.728,2.728,0,0,0,.044.621v1.774h-.931c.177,1.242,1.02,2.306.621,3.726-.4-.089-.8-.222-1.242-.31v.887c-.222.044-.4,0-.532.089a1.376,1.376,0,0,1-1.419.222,7.656,7.656,0,0,1-1.419-.488,4.148,4.148,0,0,1-.887-.71c.177-1.065.4-2.218.621-3.327.089-.488.089-.8-.577-.71.089-.577.133-1.153.222-1.686a.447.447,0,0,1,.044-.133c.577-.089.4-.532.4-.843.089-1.286.089-2.573.089-3.815a.546.546,0,0,0-.222-.444,1.772,1.772,0,0,1,.8-3.327c.044,0,.089-.044.133-.044.133-.355,0-.532-.4-.577-1.242-.177-2.484-.444-3.77-.665.133-.665.222-1.286.355-1.907.222.044.4.044.577.089.222-1.02.355-2.085.665-3.061a25.577,25.577,0,0,1,1.375-3.637A5.559,5.559,0,0,1,16.9,6.676a1.228,1.228,0,0,0,.4.044c.044-.222.044-.355.089-.621h2.351a8.03,8.03,0,0,0,1.02-.133,1.637,1.637,0,0,0,1.109-1.109.863.863,0,0,1,.577-.444.458.458,0,0,0,.4-.532,3.082,3.082,0,0,1,2-3.1c.177-.089.266-.31.444-.577h2.972c.31.31.488.577.71.665a2.935,2.935,0,0,1,1.819,2.927c0,.444.133.665.577.754a.588.588,0,0,1,.31.4c.089.31.577.976.887,1.02,1.2.133,2.4.266,3.548.4,0-.044.044-.089.044-.177.089.222.133.444.177.577a20.026,20.026,0,0,1,2.794-.089,5.086,5.086,0,0,1,3.815,2.661,17.355,17.355,0,0,1,2.085,6.077,6.885,6.885,0,0,0,.177.931.749.749,0,0,0,.089.222c.222,0,.4-.044.621-.044.089.621.222,1.242.31,1.907l-3.061.532-.931.133c-.355.044-.488.177-.4.577a4.153,4.153,0,0,1,.71.177,1.764,1.764,0,0,1,1.2,1.6A1.438,1.438,0,0,1,42.847,23a.591.591,0,0,0-.266.4v4.7c.444-.044.577.133.577.488,0,.444.133.887.177,1.331-.222.044-.444.089-.71.133.266,1.375.488,2.794.754,4.214-.31-.133-.532-.044-.621.266,0,.089-.133.177-.177.177-.976.31-1.952.976-3.061.266-.089-.044-.222-.044-.355-.089,0-.31.044-.621.044-.931-.444.133-.887.266-1.286.4a6.625,6.625,0,0,0,1.73,3.415,5,5,0,0,1,1.375,3.1,1.646,1.646,0,0,0,.089.4c.4-.133.532.089.665.4,1.508,4.835,3.061,9.625,4.569,14.46.133.4.266.577.71.621a20.157,20.157,0,0,1,5.589,1.331,5.312,5.312,0,0,1,.931.577,1.577,1.577,0,0,1,.621,1.286v4.391a1.12,1.12,0,0,1-.532,1.065,10.378,10.378,0,0,1-2.484,1.109c-2.218.532-4.48.976-6.742,1.286a145.823,145.823,0,0,1-22,.887,114.443,114.443,0,0,1-15.569-1.2,20.69,20.69,0,0,1-5.9-1.552,4.212,4.212,0,0,1-.754-.444,1.271,1.271,0,0,1-.621-1.2c.044-1.419.044-2.883,0-4.3A1.843,1.843,0,0,1,.487,58.35a10.219,10.219,0,0,1,3.371-1.2c.887-.177,1.774-.31,2.661-.444a.577.577,0,0,0,.577-.488c1.109-3.548,2.262-7.1,3.371-10.6C11.132,44.023,11.576,42.56,12.064,41.051ZM25.5,31.737a6.294,6.294,0,0,1-.444,1.286c-1.109,2.085-2.262,4.169-3.371,6.254a11.4,11.4,0,0,0-1.419,3.948c0,.133.044.266.044.4.044.177.177.4.133.577-.31,2.4-.665,4.79-.976,7.23-.177,1.375-.355,2.706-.532,4.081H34.774c-.222-1.552-.4-3.1-.621-4.613-.31-2.262-.577-4.524-.887-6.742,0-.133-.044-.355,0-.4.355-.222.222-.532.133-.8a20.152,20.152,0,0,0-1.153-3.1c-1.109-2.218-2.351-4.347-3.548-6.52-.222-.4-.577-.8-.31-1.331.044-.089-.044-.222-.089-.355A2.553,2.553,0,0,1,25.5,31.737ZM37.79,30.406c.044-.665.089-1.286.089-1.952a1.509,1.509,0,0,0-.044-.444c-.266-1.375-.577-2.75-.887-4.125a1.3,1.3,0,0,0-.31-.532,2.15,2.15,0,0,1-.444-2.617c.31-.355.177-.621-.044-1.02-.444,1.109-.665,2.306-2.129,2.351V23c.621-.133.71.177.71.665-.044.577,0,1.153,0,1.686a1.181,1.181,0,0,0,.133.532c.133.31.355.621.488.931.621,1.686,1.2,3.327,1.774,5.012.222.621.488,1.242.71,1.907a.659.659,0,0,0,.089-.4,2.573,2.573,0,0,1,.4-1.774,4.392,4.392,0,0,0,.355-1.153Z" transform="translate(2265.898 795.799)"/>
</svg>
