<?xml version="1.0" encoding="utf-8"?>
<!-- Generator: Adobe Illustrator 18.0.0, SVG Export Plug-In . SVG Version: 6.00 Build 0)  -->
<!DOCTYPE svg PUBLIC "-//W3C//DTD SVG 1.1//EN" "http://www.w3.org/Graphics/SVG/1.1/DTD/svg11.dtd">
<svg version="1.1" id="Calque_1" xmlns="http://www.w3.org/2000/svg" xmlns:xlink="http://www.w3.org/1999/xlink" x="0px" y="0px"
	 viewBox="0 0 595.3 841.9" enable-background="new 0 0 595.3 841.9" xml:space="preserve">
<linearGradient id="Tracé_82_1_" gradientUnits="userSpaceOnUse" x1="-5.271331e-002" y1="420.945" x2="595.3328" y2="420.945">
	<stop  offset="0" style="stop-color:#3EB59D"/>
	<stop  offset="1" style="stop-color:#0E77BA"/>
</linearGradient>
<path id="Tracé_82" fill="url(#Tracé_82_1_)" d="M135.9,492.5c1.9,0.5,3.4,0.5,4.8,1c0.5-0.5,0.5-1,1-1.4
	c0.8-18.1,9.1-35,22.7-46.9c1.7-1.6,2.8-3.6,3.4-5.8c12.6-34.8,24.7-70.1,37.2-104.9c1.5-2.6,3.2-5.1,5.3-7.2
	c0.9-1.1,1.6-2.4,1.9-3.9c-0.5-9.2-1.4-18.4-2.4-28.1c3.2-0.4,6.4-0.5,9.7-0.5c1.4-5.8,1-9.2-5.8-11.1c-6.7-2.6-11.8-8.1-14-15
	c-1.4-2.4-2.4-4.8-3.9-7.7c-5.3,3.9-5.3,5.8-1,9.7c0.6,0.7,1.1,1.6,1.4,2.4c2.1,8.9-0.2,18.3-6.3,25.1c-1.6,1.6-2.7,3.6-3.4,5.8
	c-3.4,15.5-6.8,31-9.7,46.4c-0.1,2.3,0.1,4.5,0.5,6.8v19.3h-10.1c1.9,13.5,11.1,25.1,6.8,40.6c-4.4-1-8.7-2.4-13.5-3.4v9.7
	c-2.4,0.5-4.4,0-5.8,1c-4.3,3.6-10.3,4.6-15.5,2.4c-5.3-1.3-10.5-3-15.5-5.3c-3.6-2.1-6.8-4.7-9.7-7.7c1.9-11.6,4.4-24.2,6.8-36.3
	c1-5.3,1-8.7-6.3-7.7c1-6.3,1.4-12.6,2.4-18.4c0.1-0.5,0.2-1,0.5-1.4c6.3-1,4.4-5.8,4.4-9.2c1-14,1-28.1,1-41.6
	c0-1.9-0.9-3.7-2.4-4.8c-9.4-5.1-12.8-16.8-7.7-26.2c3.3-6,9.6-9.9,16.4-10.1c0.5,0,1-0.5,1.4-0.5c1.4-3.9,0-5.8-4.4-6.3
	c-13.5-1.9-27.1-4.8-41.1-7.2c1.4-7.2,2.4-14,3.9-20.8c2.4,0.5,4.4,0.5,6.3,1c2.4-11.1,3.9-22.7,7.2-33.4c4-13.6,9-26.8,15-39.7
	c12.3-27,42.4-41.2,71.1-33.4c1.4,0.4,2.9,0.6,4.4,0.5c0.5-2.4,0.5-3.9,1-6.8h25.6c3.7-0.2,7.4-0.7,11.1-1.4
	c5.8-1.7,10.4-6.3,12.1-12.1c1.3-2.5,3.6-4.2,6.3-4.8c2.7-0.3,4.7-2.8,4.4-5.5c0-0.1,0-0.2,0-0.3c-1-14.9,7.9-28.6,21.8-33.8
	c1.9-1,2.9-3.4,4.8-6.3h32.4c3.4,3.4,5.3,6.3,7.7,7.2C333,59.6,341,72.5,340,86.3c0,4.8,1.4,7.2,6.3,8.2c1.7,0.9,3,2.5,3.4,4.4
	c1,3.4,6.3,10.6,9.7,11.1c13.1,1.4,26.2,2.9,38.7,4.4c0-0.5,0.5-1,0.5-1.9c1,2.4,1.4,4.8,1.9,6.3c10.1-1,20.3-1.4,30.5-1
	c17.7,2.4,33.2,13.2,41.6,29c11.6,20.5,19.3,42.9,22.7,66.3c0.4,3.4,1.1,6.8,1.9,10.1c0.2,0.9,0.5,1.7,1,2.4c2.4,0,4.4-0.5,6.8-0.5
	c1,6.8,2.4,13.5,3.4,20.8l-33.4,5.8l-10.1,1.4c-3.9,0.5-5.3,1.9-4.4,6.3c2.6,0.4,5.2,1.1,7.7,1.9c7.6,2.5,12.8,9.5,13.1,17.4
	c1.1,7.2-3,14.2-9.8,16.9c-1.5,1-2.6,2.6-2.9,4.4v51.2c4.8-0.5,6.3,1.4,6.3,5.3c0,4.8,1.4,9.7,1.9,14.5c-2.4,0.5-4.8,1-7.7,1.4
	c2.9,15,5.3,30.5,8.2,45.9c-3.4-1.4-5.8-0.5-6.8,2.9c0,1-1.4,1.9-1.9,1.9c-10.6,3.4-21.3,10.6-33.4,2.9c-1-0.5-2.4-0.5-3.9-1
	c0-3.4,0.5-6.8,0.5-10.1c-4.8,1.4-9.7,2.9-14,4.4c2.5,14,9,26.9,18.9,37.2c8.8,9.2,14.1,21.1,15,33.8c0.1,1.5,0.5,3,1,4.4
	c4.4-1.4,5.8,1,7.2,4.4c16.4,52.7,33.4,104.9,49.8,157.6c1.4,4.4,2.9,6.3,7.7,6.8c20.9,1.9,41.4,6.8,60.9,14.5
	c3.6,1.7,7,3.8,10.1,6.3c4.4,3.3,6.9,8.5,6.8,14v47.9c0.5,4.7-1.8,9.2-5.8,11.6c-8.5,5.2-17.6,9.3-27.1,12.1
	c-24.2,5.8-48.8,10.6-73.5,14c-79.6,9.3-159.8,12.5-239.8,9.7c-56.8-0.5-113.5-4.9-169.7-13.1c-22.2-2.4-43.8-8.1-64.3-16.9
	c-2.9-1.3-5.7-2.9-8.2-4.8c-4.6-2.7-7.2-7.8-6.8-13.1c0.5-15.5,0.5-31.4,0-46.9c-0.2-7.3,3.5-14.1,9.7-17.8
	c11.4-6.5,23.8-10.9,36.8-13.1c9.7-1.9,19.3-3.4,29-4.8c3.1,0,5.8-2.2,6.3-5.3c12.1-38.7,24.7-77.4,36.8-115.6
	C125.7,524.9,130.6,508.9,135.9,492.5z M282.4,390.9c-1.1,4.8-2.7,9.5-4.8,14c-12.1,22.7-24.7,45.5-36.8,68.2
	c-7.8,13.3-13,27.9-15.5,43c0,1.5,0.5,2.9,0.5,4.4c0.5,1.9,1.9,4.4,1.4,6.3c-3.4,26.2-7.2,52.2-10.6,78.8c-1.9,15-3.9,29.5-5.8,44.5
	h172.7c-2.4-16.9-4.4-33.8-6.8-50.3c-3.4-24.7-6.3-49.3-9.7-73.5c0-1.4-0.5-3.9,0-4.4c3.9-2.4,2.4-5.8,1.4-8.7
	c-3.3-11.6-7.5-22.9-12.6-33.8c-12.1-24.2-25.6-47.4-38.7-71.1c-2.4-4.4-6.3-8.7-3.4-14.5c0.5-1-0.5-2.4-1-3.9
	C303.8,396.4,291.8,396.7,282.4,390.9z M416.3,376.4c0.5-7.2,1-14,1-21.3c0.1-1.6-0.1-3.3-0.5-4.8c-2.9-15-6.3-30-9.7-45
	c-0.6-2.2-1.8-4.2-3.4-5.8c-8-7.3-10-19-4.8-28.5c3.4-3.9,1.9-6.8-0.5-11.1c-4.8,12.1-7.2,25.1-23.2,25.6v10.2
	c6.8-1.4,7.7,1.9,7.7,7.2c-0.5,6.3,0,12.6,0,18.4c0,2,0.5,4,1.4,5.8c1.4,3.4,3.9,6.8,5.3,10.1c6.8,18.4,13.1,36.3,19.3,54.6
	c2.4,6.8,5.3,13.5,7.7,20.8c0.8-1.3,1.1-2.8,1-4.4c-0.9-6.8,0.6-13.6,4.4-19.3c1.9-4,3.2-8.2,3.9-12.6H416.3z"/>
</svg>
