<?xml version="1.0" encoding="utf-8"?>
<!-- Generator: Adobe Illustrator 18.0.0, SVG Export Plug-In . SVG Version: 6.00 Build 0)  -->
<!DOCTYPE svg PUBLIC "-//W3C//DTD SVG 1.0//EN" "http://www.w3.org/TR/2001/REC-SVG-20010904/DTD/svg10.dtd">
<svg version="1.0" id="Calque_1" xmlns="http://www.w3.org/2000/svg" xmlns:xlink="http://www.w3.org/1999/xlink" x="0px" y="0px"
	 viewBox="0 224.9 595.3 393" enable-background="new 0 224.9 595.3 393" xml:space="preserve">
<g enable-background="new    ">
	<path fill="#FFFFFF" d="M83.7,580c0,1.5-0.8,2.3-2.3,2.3c-1.5,0-2.3-0.8-2.3-2.3v-38.7c0-4.7-1.7-8.7-5-12.1s-7.4-5-12.1-5
		c-4.7,0-8.7,1.7-12.1,5s-5,7.4-5,12.1V580c0,1.5-0.8,2.3-2.3,2.3c-1.5,0-2.3-0.8-2.3-2.3v-38.7c0-4.7-1.7-8.7-5-12.1s-7.4-5-12.1-5
		c-4.7,0-8.7,1.7-12.1,5s-5,7.4-5,12.1V580c0,1.5-0.8,2.3-2.3,2.3c-1.5,0-2.3-0.8-2.3-2.3v-58.1c0-1.5,0.8-2.3,2.3-2.3
		c1.5,0,2.3,0.8,2.3,2.3v6.1c4.3-5.6,10.1-8.4,17.1-8.4c8.9,0,15.4,4,19.4,12c4-8,10.5-12,19.4-12c5.9,0,11,2.1,15.3,6.4
		c4.2,4.2,6.4,9.3,6.4,15.3V580z"/>
	<path fill="#FFFFFF" d="M152.1,565.4c0,0.4-0.1,0.8-0.3,1.2c-2.8,4.8-6.6,8.6-11.5,11.4c-4.9,2.8-10.1,4.2-15.7,4.2
		c-8.7,0-16-3.1-22.2-9.2c-6.1-6.1-9.2-13.5-9.2-22.2s3.1-16,9.2-22.2c6.1-6.1,13.5-9.2,22.2-9.2c3.4,0,6.9,0.6,10.5,1.9
		c3.3,1.2,6.8,3.2,10.3,5.9c4.4,3.4,6.6,6.4,6.6,9.1c0,0.9-0.4,1.5-1.1,1.9l-48.3,27.9c5.3,7.6,12.7,11.4,22,11.4
		c8.1,0,14.7-3,20-8.9c0.7-1,1.8-2.5,3.2-4.5c0.6-0.7,1.2-1.1,1.9-1.1C151.4,563.2,152.1,563.9,152.1,565.4z M146.7,535.6
		c-5.3-7.6-12.7-11.4-22-11.4c-7.4,0-13.7,2.6-18.9,7.8s-7.8,11.5-7.8,18.9c0,4,0.8,7.8,2.5,11.4L146.7,535.6z"/>
	<path fill="#FFFFFF" d="M217.4,565.4c0,0.4-0.1,0.8-0.3,1.2c-2.8,4.8-6.6,8.6-11.5,11.4c-4.9,2.8-10.1,4.2-15.7,4.2
		c-8.7,0-16-3.1-22.2-9.2c-6.1-6.1-9.2-13.5-9.2-22.2s3.1-16,9.2-22.2c6.1-6.1,13.5-9.2,22.2-9.2c3.4,0,6.9,0.6,10.5,1.9
		c3.3,1.2,6.8,3.2,10.3,5.9c4.4,3.4,6.6,6.4,6.6,9.1c0,0.9-0.4,1.5-1.1,1.9l-48.3,27.9c5.3,7.6,12.7,11.4,22,11.4
		c8.1,0,14.7-3,20-8.9c0.7-1,1.8-2.5,3.2-4.5c0.6-0.7,1.2-1.1,1.9-1.1C216.6,563.2,217.4,563.9,217.4,565.4z M211.9,535.6
		c-5.3-7.6-12.7-11.4-22-11.4c-7.4,0-13.7,2.6-18.9,7.8s-7.8,11.5-7.8,18.9c0,4,0.8,7.8,2.5,11.4L211.9,535.6z"/>
	<path fill="#FFFFFF" d="M289.4,550.9c0,8.7-3.1,16-9.2,22.2c-6.1,6.1-13.5,9.2-22.2,9.2c-5.5,0-10.6-1.3-15.4-4
		c-4.8-2.7-8.6-6.4-11.4-11.1V609c0,1.5-0.8,2.3-2.3,2.3c-1.5,0-2.3-0.8-2.3-2.3v-87.2c0-1.5,0.8-2.3,2.3-2.3c1.5,0,2.3,0.8,2.3,2.3
		v12.9c2.8-4.7,6.7-8.4,11.4-11.1c4.8-2.7,9.9-4,15.4-4c8.7,0,16,3.1,22.2,9.2C286.3,534.9,289.4,542.2,289.4,550.9z M284.9,550.9
		c0-7.4-2.6-13.7-7.8-18.9c-5.2-5.2-11.6-7.8-19-7.8c-7.4,0-13.7,2.6-19,7.8c-5.2,5.2-7.8,11.5-7.8,18.9c0,7.4,2.6,13.7,7.8,18.9
		c5.2,5.2,11.5,7.8,19,7.8c7.4,0,13.7-2.6,19-7.8C282.2,564.6,284.9,558.3,284.9,550.9z"/>
	<path fill="#FFFFFF" d="M318.1,579.9c0,1.5-0.8,2.3-2.3,2.3c-4.6,0-8.6-1.6-11.9-4.9s-4.9-7.2-4.9-11.9v-72.7
		c0-1.5,0.8-2.3,2.3-2.3c1.5,0,2.3,0.8,2.3,2.3v72.6c0,3.4,1.2,6.2,3.6,8.6s5.3,3.6,8.7,3.6C317.4,577.6,318.1,578.4,318.1,579.9z"
		/>
	<path fill="#FFFFFF" d="M383.4,565.4c0,0.4-0.1,0.8-0.3,1.2c-2.8,4.8-6.6,8.6-11.5,11.4c-4.9,2.8-10.1,4.2-15.7,4.2
		c-8.7,0-16-3.1-22.2-9.2c-6.1-6.1-9.2-13.5-9.2-22.2s3.1-16,9.2-22.2c6.1-6.1,13.5-9.2,22.2-9.2c3.4,0,6.9,0.6,10.5,1.9
		c3.3,1.2,6.8,3.2,10.3,5.9c4.4,3.4,6.6,6.4,6.6,9.1c0,0.9-0.4,1.5-1.1,1.9l-48.3,27.9c5.3,7.6,12.7,11.4,22,11.4
		c8.1,0,14.7-3,20-8.9c0.7-1,1.8-2.5,3.2-4.5c0.6-0.7,1.2-1.1,1.9-1.1C382.6,563.2,383.4,563.9,383.4,565.4z M377.9,535.6
		c-5.3-7.6-12.7-11.4-22-11.4c-7.4,0-13.7,2.6-18.9,7.8c-5.2,5.2-7.8,11.5-7.8,18.9c0,4,0.8,7.8,2.5,11.4L377.9,535.6z"/>
</g>
<g enable-background="new    ">
	<path fill="#FFFFFF" d="M458.5,549.3c0,9.1-3.2,16.9-9.6,23.3c-6.4,6.4-14.2,9.6-23.3,9.6c-9,0-16.8-3.2-23.2-9.6
		c-6.4-6.4-9.6-14.2-9.6-23.3V493c0-3.1,1.6-4.7,4.7-4.7c3.1,0,4.7,1.6,4.7,4.7v33.3c6.5-6.6,14.3-9.9,23.4-9.9
		c9.1,0,16.8,3.2,23.3,9.6C455.3,532.5,458.5,540.3,458.5,549.3z M449.2,549.3c0-6.4-2.3-11.9-6.9-16.6c-4.6-4.6-10.1-6.9-16.6-6.9
		c-6.4,0-11.9,2.3-16.5,6.9c-4.6,4.6-6.9,10.1-6.9,16.6c0,6.5,2.3,12,6.9,16.6c4.6,4.6,10.1,6.9,16.5,6.9c6.5,0,12-2.3,16.6-6.9
		C446.9,561.3,449.2,555.8,449.2,549.3z"/>
	<path fill="#FFFFFF" d="M530.5,549.3c0,9.1-3.2,16.9-9.7,23.3c-6.4,6.4-14.2,9.6-23.2,9.6s-16.8-3.2-23.2-9.6
		c-6.4-6.4-9.7-14.2-9.7-23.3c0-9,3.2-16.8,9.7-23.2c6.4-6.4,14.2-9.6,23.2-9.6s16.8,3.2,23.2,9.6
		C527.3,532.5,530.5,540.3,530.5,549.3z M521.2,549.3c0-6.4-2.3-11.9-6.9-16.6c-4.6-4.6-10.1-6.9-16.6-6.9c-6.5,0-12,2.3-16.6,6.9
		c-4.6,4.6-6.9,10.1-6.9,16.6c0,6.5,2.3,12,6.9,16.6c4.6,4.6,10.1,6.9,16.6,6.9c6.5,0,12-2.3,16.6-6.9
		C518.9,561.3,521.2,555.8,521.2,549.3z"/>
	<path fill="#FFFFFF" d="M593.2,577.5c0,1.2-0.5,2.3-1.5,3.3c-1,0.9-2.1,1.4-3.3,1.4c-1.4,0-2.6-0.6-3.5-1.7L565,556.7l-19.8,23.9
		c-1,1.1-2.2,1.7-3.5,1.7c-1.3,0-2.4-0.5-3.4-1.4c-1-0.9-1.5-2-1.5-3.3c0-1.1,0.4-2.1,1.2-3l20.8-25.2L538,524.2
		c-0.8-0.9-1.2-2-1.2-3c0-1.2,0.5-2.3,1.5-3.3c1-0.9,2.1-1.4,3.4-1.4c1.3,0,2.5,0.6,3.5,1.7l20,23.8l19.7-23.8
		c1-1.2,2.2-1.7,3.6-1.7c1.2,0,2.4,0.5,3.4,1.4c1,0.9,1.5,2.1,1.5,3.3c0,1.1-0.4,2.1-1.1,3l-20.9,25.1l21,25.2
		C592.9,575.5,593.2,576.5,593.2,577.5z"/>
</g>
<path fill="#FFFFFF" d="M353.2,335.9c-2.3-4.1-4.7-8.5-6.2-13c-0.2-0.8-0.4-1.7-0.6-2.5c-0.2-1.2,0.4-2.5,1.4-3.3
	c1.4-1,3.1-1.2,4.7-1.4c3.5-0.2,7-0.4,10.5-0.4c3.3-0.2,6.8-0.4,10.1-1.4c5.2-1.7,8-5.4,8.9-10.7c0.2-0.8,0.2-1.9,0.4-2.7
	c-0.2-0.8-0.2-1.9-0.2-2.7c-0.8-4.3-3.1-7.6-6.2-10.5c-4.7-4.5-10.3-7.6-16.3-10.3c-8.5-3.9-17.1-6.8-25.8-9.7
	c-1.9-0.6-3.7-1.2-5.4-1.9c-0.6-0.2-1-0.6-1-1.4c-0.2-2.5-0.4-5.2-0.6-7.6c-0.6-5.8-2.1-11.3-5.4-16.1c-3.3-4.7-8-7.6-13.6-8.9
	c-4.7-1.2-9.3-1.2-13.8-0.2c-6.6,1.4-11.6,5.4-14.6,11.3c-2.1,3.9-3.1,8-3.5,12.2c-0.4,2.9-0.6,5.8-0.8,8.9c0,0.8-0.4,1.2-1.2,1.4
	c-2.7,1-5.6,1.9-8.3,2.9c-9.1,2.9-18,6.2-26.6,10.5c-4.5,2.3-8.9,5-12.6,8.7c-2.9,2.7-5.2,5.8-6,9.7c-0.2,1-0.2,2.1-0.4,3.1
	c0,0.2,0,0.6,0,0.8c0.2,1,0.2,1.9,0.4,2.9c1,5.6,4.3,8.9,9.9,10.5c3.9,1,7.8,1,11.8,1.2c2.5,0.2,5.2,0.2,7.6,0.4
	c1,0,2.1,0.2,3.1,0.6c2.3,0.6,3.5,3.1,3.1,5.4c-0.8,3.1-2.1,6-3.7,8.7c-1.7,3.1-3.3,6-5,9.1l50.1,24.8c0.8-1,1.9,1.4,2.9,0.6
	c0.6-0.4,1.2-0.4,2.1,0c1.2,0.6,2.1-1.7,2.9-0.6l49.9-24.8C354.7,338.2,353.9,337,353.2,335.9"/>
<g>
	<polygon fill="none" stroke="#F2F4F6" stroke-width="2.2" stroke-miterlimit="10" points="212.7,321.9 212.7,410 300.8,454.4 
		390,408.8 390,320.9 301.5,277.3 	"/>
	<g>
		<g>
			<defs>
				<rect id="SVGID_1_" x="209.6" y="230.3" width="183.2" height="227.4"/>
			</defs>
			<clipPath id="SVGID_2_">
				<use xlink:href="#SVGID_1_"  overflow="visible"/>
			</clipPath>
			<polygon clip-path="url(#SVGID_2_)" fill="none" stroke="#FFFFFF" stroke-width="4" stroke-miterlimit="10" points="212.7,321.9 
				212.7,410 300.8,454.4 390,408.8 390,320.9 301.5,277.3 			"/>
		</g>
		<g>
			<defs>
				<rect id="SVGID_3_" x="209.6" y="230.3" width="183.2" height="227.4"/>
			</defs>
			<clipPath id="SVGID_4_">
				<use xlink:href="#SVGID_3_"  overflow="visible"/>
			</clipPath>
			
				<line clip-path="url(#SVGID_4_)" fill="none" stroke="#FFFFFF" stroke-width="4" stroke-miterlimit="10" x1="301.3" y1="365" x2="301.3" y2="452.7"/>
		</g>
	</g>
	<g>
		<g>
			<defs>
				<rect id="SVGID_5_" x="209.6" y="230.3" width="183.2" height="227.4"/>
			</defs>
			<clipPath id="SVGID_6_">
				<use xlink:href="#SVGID_5_"  overflow="visible"/>
			</clipPath>
			<polyline clip-path="url(#SVGID_6_)" fill="none" stroke="#FFFFFF" stroke-width="4" stroke-miterlimit="10" points="
				212.7,321.9 301.3,365.2 390,320.9 			"/>
		</g>
	</g>
</g>
</svg>
