<svg xmlns="http://www.w3.org/2000/svg" xmlns:xlink="http://www.w3.org/1999/xlink" viewBox="473 756.666 257.5 59.172">
  <defs>
    <style>
      .cls-1 {
        fill: url(#linear-gradient);
      }

      .cls-2 {
        fill: url(#linear-gradient-2);
      }

      .cls-3 {
        fill: url(#linear-gradient-3);
      }

      .cls-4 {
        fill: url(#linear-gradient-4);
      }

      .cls-5 {
        fill: url(#linear-gradient-5);
      }

      .cls-6 {
        fill: url(#linear-gradient-6);
      }

      .cls-7 {
        fill: url(#linear-gradient-7);
      }

      .cls-8 {
        fill: url(#linear-gradient-8);
      }

      .cls-9 {
        fill: url(#linear-gradient-9);
      }

      .cls-10 {
        fill: url(#linear-gradient-10);
      }

      .cls-11 {
        fill: url(#linear-gradient-11);
      }

      .cls-12 {
        fill: #fff;
      }

      .cls-13 {
        fill: url(#linear-gradient-12);
      }

      .cls-14 {
        fill: url(#linear-gradient-13);
      }
    </style>
    <linearGradient id="linear-gradient" x1="-0.085" y1="0.508" x2="7.091" y2="0.402" gradientUnits="objectBoundingBox">
      <stop offset="0" stop-color="#3eb59d"/>
      <stop offset="0.759" stop-color="#1187b8"/>
      <stop offset="1" stop-color="#0e77ba"/>
    </linearGradient>
    <linearGradient id="linear-gradient-2" x1="-1.682" y1="0.521" x2="8.347" y2="0.414" xlink:href="#linear-gradient"/>
    <linearGradient id="linear-gradient-3" x1="-2.793" y1="0.533" x2="7.237" y2="0.426" xlink:href="#linear-gradient"/>
    <linearGradient id="linear-gradient-4" x1="-3.696" y1="0.529" x2="5.698" y2="0.456" xlink:href="#linear-gradient"/>
    <linearGradient id="linear-gradient-5" x1="-15.9" y1="0.539" x2="14.881" y2="0.466" xlink:href="#linear-gradient"/>
    <linearGradient id="linear-gradient-6" x1="-5.616" y1="0.563" x2="4.413" y2="0.456" xlink:href="#linear-gradient"/>
    <linearGradient id="linear-gradient-7" x1="-6.055" y1="0.551" x2="2.908" y2="0.479" xlink:href="#linear-gradient"/>
    <linearGradient id="linear-gradient-8" x1="-7.118" y1="0.588" x2="1.813" y2="0.486" xlink:href="#linear-gradient"/>
    <linearGradient id="linear-gradient-9" x1="-9.576" y1="0.598" x2="0.837" y2="0.496" xlink:href="#linear-gradient"/>
    <linearGradient id="linear-gradient-10" x1="0.001" y1="0.501" x2="1" y2="0.501" xlink:href="#linear-gradient"/>
    <linearGradient id="linear-gradient-11" x1="0.028" y1="0.501" x2="1.001" y2="0.501" xlink:href="#linear-gradient"/>
    <linearGradient id="linear-gradient-12" x1="0" y1="0.5" x2="1.001" y2="0.5" xlink:href="#linear-gradient"/>
    <linearGradient id="linear-gradient-13" x1="-0.003" y1="0.5" x2="0.997" y2="0.5" xlink:href="#linear-gradient"/>
  </defs>
  <g id="Groupe_410" data-name="Groupe 410" transform="translate(416 699)">
    <g id="Groupe_154" data-name="Groupe 154" transform="translate(57 57.805)">
      <path id="Tracé_393" data-name="Tracé 393" class="cls-1" d="M175.183,80.489a.766.766,0,1,1-1.531,0V67.554a5.481,5.481,0,0,0-1.693-4.03,5.417,5.417,0,0,0-4.03-1.692,5.481,5.481,0,0,0-4.03,1.692,5.418,5.418,0,0,0-1.693,4.03V80.489a.766.766,0,1,1-1.531,0V67.554a5.7,5.7,0,0,0-9.752-4.03,5.418,5.418,0,0,0-1.692,4.03V80.489a.766.766,0,1,1-1.531,0V61.066a.766.766,0,1,1,1.531,0v2.055a6.988,6.988,0,0,1,5.722-2.821,6.736,6.736,0,0,1,6.488,4.03,6.8,6.8,0,0,1,6.488-4.03,7.292,7.292,0,0,1,7.254,7.254V80.489Z" transform="translate(-88.181 -36.083)"/>
      <path id="Tracé_394" data-name="Tracé 394" class="cls-2" d="M243.625,75.613a1.432,1.432,0,0,1-.081.4,10.493,10.493,0,0,1-9.067,5.239,10.226,10.226,0,0,1-7.415-3.063A10.069,10.069,0,0,1,224,70.777a10.226,10.226,0,0,1,3.063-7.415,10.306,10.306,0,0,1,10.921-2.418,14.724,14.724,0,0,1,3.466,1.975c1.491,1.128,2.216,2.136,2.216,3.063a.726.726,0,0,1-.363.645l-16.159,9.349a8.519,8.519,0,0,0,7.374,3.828,8.607,8.607,0,0,0,6.689-2.982c.242-.322.6-.846,1.088-1.491a.83.83,0,0,1,.645-.363C243.383,74.888,243.625,75.089,243.625,75.613Zm-1.813-9.994a8.519,8.519,0,0,0-7.374-3.828,8.943,8.943,0,0,0-8.946,8.946,8.989,8.989,0,0,0,.846,3.828Z" transform="translate(-133.734 -36.083)"/>
      <path id="Tracé_395" data-name="Tracé 395" class="cls-3" d="M297.825,75.613a1.432,1.432,0,0,1-.081.4,10.493,10.493,0,0,1-9.067,5.239,10.226,10.226,0,0,1-7.415-3.063,10.069,10.069,0,0,1-3.063-7.415,10.226,10.226,0,0,1,3.063-7.415,10.306,10.306,0,0,1,10.921-2.418,14.725,14.725,0,0,1,3.466,1.975c1.491,1.128,2.216,2.136,2.216,3.063a.726.726,0,0,1-.363.645l-16.159,9.349a8.519,8.519,0,0,0,7.374,3.828,8.607,8.607,0,0,0,6.689-2.982c.242-.322.6-.846,1.088-1.491a.83.83,0,0,1,.645-.363C297.543,74.888,297.825,75.089,297.825,75.613Zm-1.854-9.994a8.519,8.519,0,0,0-7.374-3.828,8.943,8.943,0,0,0-8.946,8.946,8.989,8.989,0,0,0,.846,3.828Z" transform="translate(-166.093 -36.083)"/>
      <path id="Tracé_396" data-name="Tracé 396" class="cls-4" d="M355.595,70.677a10.226,10.226,0,0,1-3.063,7.415,10.069,10.069,0,0,1-7.415,3.063,10.466,10.466,0,0,1-5.158-1.33,10.24,10.24,0,0,1-3.828-3.707V90.1a.766.766,0,1,1-1.531,0V60.966a.766.766,0,1,1,1.531,0v4.312a10.241,10.241,0,0,1,3.828-3.707,10.466,10.466,0,0,1,5.158-1.33,10.456,10.456,0,0,1,10.477,10.437Zm-1.531,0a8.943,8.943,0,0,0-8.986-8.946,8.83,8.83,0,0,0-6.367,2.619,8.946,8.946,0,0,0,6.367,15.273A8.83,8.83,0,0,0,351.444,77,8.607,8.607,0,0,0,354.064,70.677Z" transform="translate(-199.765 -36.024)"/>
      <path id="Tracé_397" data-name="Tracé 397" class="cls-5" d="M401.007,65.941a.7.7,0,0,1-.766.766,5.641,5.641,0,0,1-5.642-5.642v-24.3a.766.766,0,1,1,1.531,0v24.3a3.868,3.868,0,0,0,1.209,2.861,3.957,3.957,0,0,0,2.9,1.209A.729.729,0,0,1,401.007,65.941Z" transform="translate(-235.587 -21.575)"/>
      <path id="Tracé_398" data-name="Tracé 398" class="cls-6" d="M435.625,75.613a1.431,1.431,0,0,1-.081.4,10.493,10.493,0,0,1-9.067,5.239,10.226,10.226,0,0,1-7.415-3.063A10.069,10.069,0,0,1,416,70.777a10.226,10.226,0,0,1,3.063-7.415,10.306,10.306,0,0,1,10.921-2.418,14.724,14.724,0,0,1,3.466,1.975c1.491,1.128,2.216,2.136,2.216,3.063a.726.726,0,0,1-.363.645l-16.159,9.349a8.519,8.519,0,0,0,7.374,3.828,8.607,8.607,0,0,0,6.689-2.982c.242-.322.6-.846,1.088-1.491a.83.83,0,0,1,.645-.363C435.343,74.888,435.625,75.089,435.625,75.613Zm-1.854-9.994a8.519,8.519,0,0,0-7.374-3.828,8.943,8.943,0,0,0-8.946,8.946,8.989,8.989,0,0,0,.846,3.828Z" transform="translate(-248.363 -36.083)"/>
      <path id="Tracé_399" data-name="Tracé 399" class="cls-7" d="M494.4,54.69a11.007,11.007,0,0,1-11,11,11.007,11.007,0,0,1-11-11V35.872a1.572,1.572,0,1,1,3.143,0V46.994a10.571,10.571,0,0,1,7.818-3.3,10.716,10.716,0,0,1,7.777,3.224A10.445,10.445,0,0,1,494.4,54.69Zm-3.1,0a7.705,7.705,0,0,0-2.3-5.561,7.85,7.85,0,0,0-11.082,11.122A7.838,7.838,0,0,0,491.3,54.69Z" transform="translate(-282.035 -20.561)"/>
      <path id="Tracé_400" data-name="Tracé 400" class="cls-8" d="M554.083,68.6a10.47,10.47,0,0,1-3.264,7.777,11,11,0,1,1-15.555-15.555A11.042,11.042,0,0,1,554.083,68.6Zm-3.1,0a7.705,7.705,0,0,0-2.3-5.561,7.88,7.88,0,1,0,2.3,5.561Z" transform="translate(-317.618 -34.471)"/>
      <path id="Tracé_401" data-name="Tracé 401" class="cls-9" d="M610.859,78.09a1.5,1.5,0,0,1-.484,1.088,1.68,1.68,0,0,1-1.088.484,1.433,1.433,0,0,1-1.169-.564l-6.649-7.979-6.649,8.019a1.55,1.55,0,0,1-1.169.564,1.525,1.525,0,0,1-1.128-.484,1.439,1.439,0,0,1-.484-1.088,1.467,1.467,0,0,1,.4-1.007l6.931-8.422L592.4,60.279a1.467,1.467,0,0,1-.4-1.007,1.5,1.5,0,0,1,.484-1.088,1.694,1.694,0,0,1,1.128-.484,1.55,1.55,0,0,1,1.169.564l6.689,7.979,6.649-7.979a1.45,1.45,0,0,1,1.209-.564,1.591,1.591,0,0,1,1.128.484,1.439,1.439,0,0,1,.484,1.088,1.628,1.628,0,0,1-.363,1.007l-6.971,8.382,7.012,8.422A2.449,2.449,0,0,1,610.859,78.09Z" transform="translate(-353.44 -34.531)"/>
      <path id="Tracé_402" data-name="Tracé 402" class="cls-10" d="M47.8,38.122,25.035,26.476,2.227,38.122,1.3,36.309,24.552,24.421a.949.949,0,0,1,.927,0L48.73,36.309Z" transform="translate(-0.776 -14.59)"/>
      <path id="Tracé_403" data-name="Tracé 403" class="cls-11" d="M46.19,42.673H35.833a.308.308,0,0,1-.2-.081,3.814,3.814,0,0,1-.725-.2,2.573,2.573,0,0,1-1.128-1.048c-.685-1.048-1.33-2.176-2.015-3.224-.6-.927-1.169-1.894-1.813-2.821a2.906,2.906,0,0,0-1.007-.967c-.2-.081-.363-.121-.524,0a2.368,2.368,0,0,0-.725.685c-.6.846-1.169,1.692-1.733,2.579-.766,1.249-1.531,2.5-2.337,3.707a2.27,2.27,0,0,1-1.612,1.209,2.042,2.042,0,0,1-.524.081H11.212a6.634,6.634,0,0,0-.846-.081c-.564-.081-1.088-.322-1.128-1.007a4.332,4.332,0,0,1,.04-1.249,11.058,11.058,0,0,1,.685-2.579,38.055,38.055,0,0,1,2.5-5.36c1.048-1.975,2.176-3.909,3.264-5.883a12.219,12.219,0,0,0,1.128-2.579,1,1,0,0,0-.725-1.41,8.436,8.436,0,0,0-.846-.2c-.927,0-1.854-.04-2.74-.081a9.4,9.4,0,0,1-2.378-.322,3.737,3.737,0,0,1-1.692-.967,3.9,3.9,0,0,1-.846-3.586,4.766,4.766,0,0,1,1.612-2.539,14.354,14.354,0,0,1,3.345-2.257,47.245,47.245,0,0,1,6.971-2.74c.725-.242,1.451-.484,2.176-.766.2-.081.282-.161.282-.363.081-.766.121-1.531.2-2.3A10.184,10.184,0,0,1,23.14,3.1,5.559,5.559,0,0,1,27.008.079a8.1,8.1,0,0,1,3.546-.04,5.38,5.38,0,0,1,3.586,2.337,8.96,8.96,0,0,1,1.41,4.231c.081.685.121,1.33.161,2.015a.321.321,0,0,0,.282.363c.484.161.967.322,1.41.484a57.5,57.5,0,0,1,6.81,2.539,15.453,15.453,0,0,1,4.272,2.74,5.079,5.079,0,0,1,1.652,2.781,3.527,3.527,0,0,1,.081.645v.121a3.97,3.97,0,0,0-.081.685A3.337,3.337,0,0,1,47.8,21.8a9.558,9.558,0,0,1-2.619.363c-.887.04-1.813.081-2.74.121a2.793,2.793,0,0,0-1.249.363.794.794,0,0,0-.4.766,5.183,5.183,0,0,0,.161.766A16.475,16.475,0,0,0,42.6,27.561c1.007,1.813,2.055,3.667,3.022,5.48A28.1,28.1,0,0,1,47.8,37.958a10.612,10.612,0,0,1,.6,3.183,1.251,1.251,0,0,1-1.209,1.37,2.573,2.573,0,0,1-1.007.161" transform="translate(-4.482)"/>
      <g id="Groupe_152" data-name="Groupe 152" transform="translate(0 21.642)">
        <path id="Tracé_404" data-name="Tracé 404" class="cls-12" d="M25.752,68.288,2.5,56.4V79.893L25.752,91.781,49,79.893V56.4Z" transform="translate(-1.493 -55.397)"/>
        <path id="Tracé_405" data-name="Tracé 405" class="cls-13" d="M24.259,91.3a.812.812,0,0,1-.443-.121L.564,79.294A1.04,1.04,0,0,1,0,78.408V54.914a.982.982,0,0,1,.484-.846,1.03,1.03,0,0,1,.967-.04L24.219,65.674,46.987,54.028a.926.926,0,0,1,.967.04,1.1,1.1,0,0,1,.484.846V78.408a.966.966,0,0,1-.564.887L24.622,91.182C24.581,91.262,24.42,91.3,24.259,91.3ZM2.015,77.8,24.259,89.167,46.5,77.8V56.566L24.743,67.689a.949.949,0,0,1-.927,0L2.015,56.566Z" transform="translate(0 -53.911)"/>
      </g>
      <g id="Groupe_153" data-name="Groupe 153" transform="translate(23.252 34.533)">
        <line id="Ligne_26" data-name="Ligne 26" class="cls-12" y2="23.493" transform="translate(1.007)"/>
        <rect id="Rectangle_218" data-name="Rectangle 218" class="cls-14" width="2.015" height="23.493"/>
      </g>
    </g>
  </g>
</svg>
