<svg xmlns="http://www.w3.org/2000/svg" xmlns:xlink="http://www.w3.org/1999/xlink" viewBox="596 1268.066 17.402 14.134">
  <defs>
    <style>
      .cls-1 {
        fill: url(#linear-gradient);
      }
    </style>
    <linearGradient id="linear-gradient" y1="0.502" x2="0.998" y2="0.502" gradientUnits="objectBoundingBox">
      <stop offset="0" stop-color="#3eb59d"/>
      <stop offset="0.759" stop-color="#1187b8"/>
      <stop offset="1" stop-color="#0e77ba"/>
    </linearGradient>
  </defs>
  <path id="Tracé_409" data-name="Tracé 409" class="cls-1" d="M0,12.438a10.031,10.031,0,0,0,5.471,1.6,10.116,10.116,0,0,0,10.145-10.6A7.577,7.577,0,0,0,17.4,1.572a7.469,7.469,0,0,1-2.052.57A3.668,3.668,0,0,0,16.908.166a6.618,6.618,0,0,1-2.28.874,3.539,3.539,0,0,0-6.041,3.23A9.9,9.9,0,0,1,1.216.584a3.535,3.535,0,0,0,1.1,4.749,3.252,3.252,0,0,1-1.6-.456,3.57,3.57,0,0,0,2.85,3.534,3.749,3.749,0,0,1-1.6.076,3.611,3.611,0,0,0,3.344,2.47A7.3,7.3,0,0,1,0,12.438Z" transform="translate(596 1268.166)"/>
</svg>
