<svg xmlns="http://www.w3.org/2000/svg" viewBox="111.339 1832 170.271 35.65">
  <defs>
    <style>
      .cls-1, .cls-3 {
        fill: #fff;
      }

      .cls-1, .cls-2 {
        stroke: #fff;
        stroke-linejoin: round;
        stroke-miterlimit: 10;
        stroke-width: 1.3px;
      }

      .cls-2 {
        fill: none;
      }
    </style>
  </defs>
  <g id="Groupe_111" data-name="Groupe 111" transform="translate(110.989 1832.063)">
    <line id="Ligne_7" data-name="Ligne 7" class="cls-1" y2="14.169" transform="translate(14.986 20.768)"/>
    <path id="Tracé_89" data-name="Tracé 89" class="cls-2" d="M1,28.561,14.986,21.4l13.986,7.161" transform="translate(0 -14.923)"/>
    <path id="Tracé_90" data-name="Tracé 90" class="cls-2" d="M14.986,52.03,1,44.9V59.039L14.986,66.2l13.986-7.161V44.9Z" transform="translate(0 -31.263)"/>
    <path id="Tracé_91" data-name="Tracé 91" class="cls-3" d="M6.512,13.18a7.367,7.367,0,0,0,1.432.183c.548.03,1.1.03,1.645.03a3.188,3.188,0,0,1,.518.122c.457.152.548.366.457.823a7.043,7.043,0,0,1-.67,1.554l-.366.64,8.044,4.114c.091-.061.183-.03.3,0h0l8.044-4.114a9.832,9.832,0,0,1-.945-1.981,2.429,2.429,0,0,1-.091-.457.41.41,0,0,1,.244-.457,1.375,1.375,0,0,1,.762-.213c.548-.03,1.127-.061,1.645-.061a6.847,6.847,0,0,0,1.584-.213,1.959,1.959,0,0,0,1.4-1.706c.03-.122.03-.274.061-.4v-.061c0-.122-.03-.274-.03-.4a2.939,2.939,0,0,0-.975-1.676,9.427,9.427,0,0,0-2.56-1.645,38.623,38.623,0,0,0-4.083-1.524c-.274-.091-.579-.213-.853-.3a.2.2,0,0,1-.152-.213c-.03-.4-.061-.792-.091-1.219a5.557,5.557,0,0,0-.853-2.56,3.29,3.29,0,0,0-2.163-1.4,4.589,4.589,0,0,0-2.133.03,3.286,3.286,0,0,0-2.316,1.828,6.208,6.208,0,0,0-.548,1.95c-.061.457-.091.914-.122,1.371a.2.2,0,0,1-.152.213c-.457.152-.884.3-1.31.457a29.346,29.346,0,0,0-4.2,1.645A8.11,8.11,0,0,0,6.025,8.914a2.82,2.82,0,0,0-.975,1.524A2.42,2.42,0,0,0,5.537,12.6,1.6,1.6,0,0,0,6.512,13.18Z" transform="translate(-2.77 0)"/>
    <g id="Groupe_111-2" data-name="Groupe 111" transform="translate(38.967 7.3)">
      <path id="Tracé_92" data-name="Tracé 92" class="cls-3" d="M143.844,62.887a.513.513,0,1,1-1.027,0V54.318a3.829,3.829,0,0,0-1.106-2.685,3.606,3.606,0,0,0-2.685-1.106,3.829,3.829,0,0,0-2.685,1.106,3.668,3.668,0,0,0-1.106,2.685v8.569a.459.459,0,0,1-.513.513c-.355,0-.513-.158-.513-.513V54.318a3.829,3.829,0,0,0-1.106-2.685,3.606,3.606,0,0,0-2.685-1.106,3.829,3.829,0,0,0-2.685,1.106,3.606,3.606,0,0,0-1.106,2.685v8.569a.513.513,0,0,1-1.027,0V50.013a.513.513,0,0,1,1.027,0v1.343a4.622,4.622,0,0,1,3.791-1.856,4.5,4.5,0,0,1,4.3,2.646,4.458,4.458,0,0,1,4.3-2.646,4.656,4.656,0,0,1,3.4,1.422,4.593,4.593,0,0,1,1.422,3.4Z" transform="translate(-125.6 -43.024)"/>
      <path id="Tracé_93" data-name="Tracé 93" class="cls-3" d="M190.11,59.527a1,1,0,0,1-.079.276,7.121,7.121,0,0,1-6.042,3.475,6.68,6.68,0,0,1-4.936-2.053A6.769,6.769,0,0,1,177,56.289a6.68,6.68,0,0,1,2.053-4.936,6.769,6.769,0,0,1,4.936-2.053,6.224,6.224,0,0,1,2.33.434,9.1,9.1,0,0,1,2.29,1.3c.987.75,1.461,1.422,1.461,2.014a.5.5,0,0,1-.237.434l-10.7,6.2a5.976,5.976,0,0,0,9.319.553c.158-.237.395-.553.711-.987a.546.546,0,0,1,.434-.237C189.952,59.054,190.11,59.212,190.11,59.527Zm-1.185-6.595a5.618,5.618,0,0,0-4.9-2.527,5.693,5.693,0,0,0-4.186,1.737,5.757,5.757,0,0,0-1.738,4.186,5.616,5.616,0,0,0,.553,2.527Z" transform="translate(-156.703 -42.903)"/>
      <path id="Tracé_94" data-name="Tracé 94" class="cls-3" d="M226.81,59.527a1,1,0,0,1-.079.276,7.121,7.121,0,0,1-6.042,3.475,6.68,6.68,0,0,1-4.936-2.053,6.769,6.769,0,0,1-2.053-4.936,6.68,6.68,0,0,1,2.053-4.936,6.769,6.769,0,0,1,4.936-2.053,6.224,6.224,0,0,1,2.33.434,9.1,9.1,0,0,1,2.29,1.3c.987.75,1.461,1.422,1.461,2.014a.5.5,0,0,1-.237.434l-10.7,6.2a5.976,5.976,0,0,0,9.319.553c.158-.237.395-.553.711-.987a.546.546,0,0,1,.434-.237C226.652,59.054,226.81,59.212,226.81,59.527Zm-1.224-6.595a5.617,5.617,0,0,0-4.9-2.527,5.693,5.693,0,0,0-4.186,1.737,5.757,5.757,0,0,0-1.738,4.186,5.616,5.616,0,0,0,.553,2.527Z" transform="translate(-178.911 -42.903)"/>
      <path id="Tracé_95" data-name="Tracé 95" class="cls-3" d="M265.939,56.51a6.68,6.68,0,0,1-2.053,4.936A6.768,6.768,0,0,1,258.95,63.5a6.693,6.693,0,0,1-3.4-.869,6.834,6.834,0,0,1-2.527-2.448v9.28a.513.513,0,0,1-1.027,0V50.113a.513.513,0,0,1,1.027,0v2.8a7.144,7.144,0,0,1,2.527-2.448,6.9,6.9,0,0,1,3.4-.869,6.68,6.68,0,0,1,4.936,2.053A6.386,6.386,0,0,1,265.939,56.51Zm-.987,0a5.693,5.693,0,0,0-1.737-4.186,5.782,5.782,0,0,0-4.225-1.737,5.846,5.846,0,0,0-4.225,1.737,5.923,5.923,0,0,0,4.225,10.109,5.846,5.846,0,0,0,4.225-1.737A5.757,5.757,0,0,0,264.952,56.51Z" transform="translate(-202.087 -43.084)"/>
      <path id="Tracé_96" data-name="Tracé 96" class="cls-3" d="M296.865,52.923a.459.459,0,0,1-.513.513,3.58,3.58,0,0,1-2.646-1.106,3.519,3.519,0,0,1-1.106-2.646V33.613a.513.513,0,0,1,1.027,0V49.725a2.594,2.594,0,0,0,.79,1.9,2.683,2.683,0,0,0,1.935.79C296.746,52.449,296.865,52.607,296.865,52.923Z" transform="translate(-226.654 -33.1)"/>
      <path id="Tracé_97" data-name="Tracé 97" class="cls-3" d="M320.071,59.527a1,1,0,0,1-.079.276,7.121,7.121,0,0,1-6.042,3.475,6.68,6.68,0,0,1-4.936-2.053A6.958,6.958,0,0,1,307,56.289a6.68,6.68,0,0,1,2.053-4.936,6.769,6.769,0,0,1,4.936-2.053,6.224,6.224,0,0,1,2.33.434,9.1,9.1,0,0,1,2.29,1.3c.987.75,1.461,1.422,1.461,2.014a.5.5,0,0,1-.237.434l-10.7,6.2a5.976,5.976,0,0,0,9.319.553c.158-.237.395-.553.711-.987a.546.546,0,0,1,.434-.237A.466.466,0,0,1,320.071,59.527Zm-1.224-6.595a5.617,5.617,0,0,0-4.9-2.527,5.693,5.693,0,0,0-4.186,1.737,5.757,5.757,0,0,0-1.738,4.186,5.616,5.616,0,0,0,.553,2.527Z" transform="translate(-235.368 -42.903)"/>
    </g>
    <g id="Groupe_112" data-name="Groupe 112" transform="translate(126.157 7.221)">
      <path id="Tracé_98" data-name="Tracé 98" class="cls-3" d="M360.971,46.444a7.281,7.281,0,0,1-7.305,7.305,6.977,6.977,0,0,1-5.134-2.132,7.065,7.065,0,0,1-2.132-5.173V33.927a1.027,1.027,0,0,1,2.053,0v7.384a6.988,6.988,0,0,1,5.173-2.211,7.348,7.348,0,0,1,7.345,7.345Zm-2.053,0a5.259,5.259,0,1,0-1.54,3.672A5.014,5.014,0,0,0,358.918,46.444Z" transform="translate(-346.4 -32.9)"/>
      <path id="Tracé_99" data-name="Tracé 99" class="cls-3" d="M401.432,56.066a7.281,7.281,0,0,1-7.266,7.305,6.977,6.977,0,0,1-5.133-2.132,7.065,7.065,0,0,1-2.132-5.173,7.266,7.266,0,0,1,14.532,0Zm-2.053,0a5.259,5.259,0,1,0-1.54,3.672A5.014,5.014,0,0,0,399.378,56.066Z" transform="translate(-370.907 -42.521)"/>
      <path id="Tracé_100" data-name="Tracé 100" class="cls-3" d="M439.778,62.244a1.079,1.079,0,0,1-1.066,1.066.922.922,0,0,1-.79-.395L433.5,57.624l-4.344,5.291a1.1,1.1,0,0,1-.79.395,1.155,1.155,0,0,1-.75-.316.885.885,0,0,1-.316-.75.925.925,0,0,1,.276-.671l4.62-5.568-4.62-5.568a1.12,1.12,0,0,1-.276-.671,1.079,1.079,0,0,1,1.066-1.066,1.026,1.026,0,0,1,.79.395l4.423,5.291,4.383-5.291a.971.971,0,0,1,.79-.395,1.155,1.155,0,0,1,.75.316.934.934,0,0,1,.316.75,1.072,1.072,0,0,1-.237.671l-4.62,5.568,4.66,5.568A2.075,2.075,0,0,1,439.778,62.244Z" transform="translate(-395.354 -42.461)"/>
    </g>
  </g>
</svg>
