<svg xmlns="http://www.w3.org/2000/svg" xmlns:xlink="http://www.w3.org/1999/xlink" viewBox="912 2443.074 27.388 32.882">
  <defs>
    <style>
      .cls-1 {
        fill: url(#linear-gradient);
      }

      .cls-2 {
        fill: url(#linear-gradient-2);
      }

      .cls-3 {
        fill: #f2f4f6;
      }

      .cls-4 {
        fill: url(#linear-gradient-3);
      }

      .cls-5 {
        fill: #fff;
      }

      .cls-6 {
        fill: url(#linear-gradient-4);
      }
    </style>
    <linearGradient id="linear-gradient" y1="0.504" x2="1.001" y2="0.504" gradientUnits="objectBoundingBox">
      <stop offset="0" stop-color="#3eb59d"/>
      <stop offset="0.759" stop-color="#1187b8"/>
      <stop offset="1" stop-color="#0e77ba"/>
    </linearGradient>
    <linearGradient id="linear-gradient-2" x1="0.033" y1="0.496" x2="1.011" y2="0.496" xlink:href="#linear-gradient"/>
    <linearGradient id="linear-gradient-3" x1="0" y1="0.497" x2="0.997" y2="0.497" xlink:href="#linear-gradient"/>
    <linearGradient id="linear-gradient-4" x1="0.012" y1="0.501" x2="1.012" y2="0.501" xlink:href="#linear-gradient"/>
  </defs>
  <g id="Groupe_469" data-name="Groupe 469" transform="translate(912 2443.049)">
    <path id="Tracé_379" data-name="Tracé 379" class="cls-1" d="M26.021,12.77,13.652,6.475,1.173,12.77.4,11.334,13.21,4.708a.943.943,0,0,1,.773,0l12.81,6.516Z" transform="translate(0.042 0.48)"/>
    <path id="Tracé_380" data-name="Tracé 380" class="cls-2" d="M23.128,23.63H17.275a.664.664,0,0,1-.442-.11,2.928,2.928,0,0,1-.663-.552c-.331-.552-.773-1.215-1.1-1.767s-.663-.994-.994-1.546a1.331,1.331,0,0,0-.552-.552c-.11,0-.221-.11-.331,0s-.331.221-.442.331c-.331.442-.663.994-.994,1.436-.442.663-.883,1.436-1.325,2.1,0,.221-.221.442-.663.552H3.36a.7.7,0,0,1-.663-.552v-.663c.11-.442.221-.994.331-1.436a18.373,18.373,0,0,1,1.436-2.982c.552-1.1,1.215-2.1,1.767-3.2.221-.442.442-.883.663-1.436.11-.442,0-.663-.442-.773-.11,0-.331-.11-.442-.11H4.465a2.8,2.8,0,0,1-1.325-.221,2.257,2.257,0,0,1-.994-.552A2.462,2.462,0,0,1,1.7,9.605,2.846,2.846,0,0,1,2.587,8.17,10.942,10.942,0,0,1,4.465,6.955,23.52,23.52,0,0,1,8.33,5.409a5.383,5.383,0,0,0,1.215-.442c.11,0,.221,0,.221-.11a5.377,5.377,0,0,1,.11-1.325,4.731,4.731,0,0,1,.552-1.767,3.149,3.149,0,0,1,2.1-1.657,5.35,5.35,0,0,1,1.877,0,2.538,2.538,0,0,1,1.988,1.325,5.769,5.769,0,0,1,.773,2.319c0,.331.11.773.11,1.1,0,.11,0,.221.11.221a2.047,2.047,0,0,0,.773.221,37.8,37.8,0,0,1,3.755,1.436A8.51,8.51,0,0,1,24.232,8.28a2.735,2.735,0,0,1,.883,1.546V10.6a1.764,1.764,0,0,1-1.325,1.546,6.463,6.463,0,0,1-1.436.221,7.823,7.823,0,0,0-1.546.11,1.57,1.57,0,0,0-.663.221.574.574,0,0,0-.221.442.664.664,0,0,0,.11.442,9.79,9.79,0,0,0,.883,1.877l1.657,2.982A20.858,20.858,0,0,1,23.791,21.2a4.578,4.578,0,0,1,.331,1.767.73.73,0,0,1-.663.773c0-.11-.221-.11-.331-.11" transform="translate(0.174)"/>
    <g id="Groupe_137" data-name="Groupe 137" transform="translate(0 11.841)">
      <path id="Tracé_381" data-name="Tracé 381" class="cls-3" d="M13.621,17.916.7,11.4V24.321l12.921,6.516,12.81-6.516V11.4Z" transform="translate(0.073 -10.655)"/>
      <path id="Tracé_382" data-name="Tracé 382" class="cls-4" d="M13.694,31.79a.406.406,0,0,1-.331-.11L.442,25.164A1.118,1.118,0,0,1,0,24.391V11.47a.606.606,0,0,1,.442-.663.943.943,0,0,1,.773,0l12.479,6.405,12.479-6.405a.943.943,0,0,1,.773,0,.908.908,0,0,1,.442.663V24.391a1.118,1.118,0,0,1-.442.773L14.136,31.68A.835.835,0,0,1,13.694,31.79ZM1.657,23.839l12.037,6.184,12.037-6.184V12.8L14.025,18.759a.943.943,0,0,1-.773,0L1.657,12.8Z" transform="translate(0 -10.725)"/>
    </g>
    <g id="Groupe_138" data-name="Groupe 138" transform="translate(12.81 19.103)">
      <line id="Ligne_19" data-name="Ligne 19" class="cls-5" y2="12.921" transform="translate(0.883)"/>
      <rect id="Rectangle_212" data-name="Rectangle 212" class="cls-6" width="1.657" height="12.921"/>
    </g>
  </g>
</svg>
