<svg xmlns="http://www.w3.org/2000/svg" viewBox="2252 4105.321 25.572 31.454">
  <defs>
    <style>
      .cls-1 {
        fill: #9d9d9c;
      }

      .cls-2, .cls-3 {
        fill: #f2f4f6;
      }

      .cls-2 {
        stroke: #9d9d9c;
        stroke-width: 1.5px;
      }

      .cls-4 {
        fill: #fff;
      }
    </style>
  </defs>
  <g id="Groupe_439" data-name="Groupe 439" transform="translate(2252 4106.049)">
    <path id="Tracé_379" data-name="Tracé 379" class="cls-1" d="M24.322,12.229,12.773,6.352,1.122,12.229.4,10.889,12.361,4.7a.881.881,0,0,1,.722,0l11.961,6.084Z" transform="translate(0.012 0.143)"/>
    <path id="Tracé_380" data-name="Tracé 380" class="cls-2" d="M21.7,22.065H16.24a.62.62,0,0,1-.412-.1,2.734,2.734,0,0,1-.619-.516c-.309-.516-.722-1.134-1.031-1.65s-.619-.928-.928-1.444a1.243,1.243,0,0,0-.516-.516c-.1,0-.206-.1-.309,0s-.309.206-.412.309c-.309.412-.619.928-.928,1.34-.412.619-.825,1.34-1.237,1.959,0,.206-.206.412-.619.516H3.248a.654.654,0,0,1-.619-.516v-.619c.1-.412.206-.928.309-1.34A17.155,17.155,0,0,1,4.279,16.7c.516-1.031,1.134-1.959,1.65-2.99.206-.412.412-.825.619-1.34.1-.412,0-.619-.412-.722-.1,0-.309-.1-.412-.1H4.279a2.616,2.616,0,0,1-1.237-.206,2.108,2.108,0,0,1-.928-.516A2.3,2.3,0,0,1,1.7,8.97a2.657,2.657,0,0,1,.825-1.34A10.216,10.216,0,0,1,4.279,6.5,21.961,21.961,0,0,1,7.888,5.052a5.026,5.026,0,0,0,1.134-.412c.1,0,.206,0,.206-.1a5.02,5.02,0,0,1,.1-1.237,4.417,4.417,0,0,1,.516-1.65A2.94,2.94,0,0,1,11.806.1a5,5,0,0,1,1.753,0A2.37,2.37,0,0,1,15.415,1.34a5.387,5.387,0,0,1,.722,2.165c0,.309.1.722.1,1.031,0,.1,0,.206.1.206a1.912,1.912,0,0,0,.722.206,35.29,35.29,0,0,1,3.506,1.34,7.946,7.946,0,0,1,2.165,1.444,2.554,2.554,0,0,1,.825,1.444V9.9a1.647,1.647,0,0,1-1.237,1.444,6.035,6.035,0,0,1-1.34.206,7.3,7.3,0,0,0-1.444.1,1.466,1.466,0,0,0-.619.206.536.536,0,0,0-.206.412.62.62,0,0,0,.1.412,9.141,9.141,0,0,0,.825,1.753l1.547,2.784A19.475,19.475,0,0,1,22.323,19.8a4.275,4.275,0,0,1,.309,1.65.682.682,0,0,1-.619.722c0-.1-.206-.1-.309-.1" transform="translate(0.052)"/>
    <g id="Groupe_137" data-name="Groupe 137" transform="translate(0 11.058)">
      <path id="Tracé_381" data-name="Tracé 381" class="cls-3" d="M12.764,17.484.7,11.4V23.464l12.064,6.084,11.961-6.084V11.4Z" transform="translate(0.022 -10.704)"/>
      <path id="Tracé_382" data-name="Tracé 382" class="cls-1" d="M12.786,30.393a.379.379,0,0,1-.309-.1L.412,24.207A1.044,1.044,0,0,1,0,23.485V11.421A.565.565,0,0,1,.412,10.8a.881.881,0,0,1,.722,0l11.652,5.98L24.437,10.8a.881.881,0,0,1,.722,0,.848.848,0,0,1,.412.619V23.485a1.044,1.044,0,0,1-.412.722L13.2,30.29A.779.779,0,0,1,12.786,30.393ZM1.547,22.969l11.239,5.774,11.239-5.774V12.658L13.1,18.226a.881.881,0,0,1-.722,0L1.547,12.658Z" transform="translate(0 -10.725)"/>
    </g>
    <g id="Groupe_138" data-name="Groupe 138" transform="translate(11.961 17.837)">
      <line id="Ligne_19" data-name="Ligne 19" class="cls-4" y2="12.064" transform="translate(0.825)"/>
      <rect id="Rectangle_212" data-name="Rectangle 212" class="cls-1" width="1.547" height="12.064"/>
    </g>
  </g>
</svg>
