<svg xmlns="http://www.w3.org/2000/svg" viewBox="149.1 3261.04 29.896 29.465">
  <defs>
    <style>
      .cls-1 {
        fill: #f2f4f6;
      }

      .cls-2 {
        fill: none;
        stroke: #9d9d9c;
        stroke-miterlimit: 10;
        stroke-width: 1.5px;
      }
    </style>
  </defs>
  <g id="Groupe_434" data-name="Groupe 434" transform="translate(149.85 3261.79)">
    <path id="Tracé_344" data-name="Tracé 344" class="cls-1" d="M4.275.5A3.753,3.753,0,0,0,.5,4.275v15.27a3.827,3.827,0,0,0,3.775,3.86H22.633a3.5,3.5,0,0,1,3.174,1.287c.086.086.257.172.343.343L28.9,27.523V4.36A3.826,3.826,0,0,0,25.035.586H4.275Z" transform="translate(-0.5 -0.5)"/>
    <path id="Tracé_345" data-name="Tracé 345" class="cls-2" d="M4.275.5A3.753,3.753,0,0,0,.5,4.275v15.27a3.827,3.827,0,0,0,3.775,3.86H22.633a3.5,3.5,0,0,1,3.174,1.287c.086.086.257.172.343.343L28.9,27.523V4.36A3.826,3.826,0,0,0,25.035.586H4.275Z" transform="translate(-0.5 -0.5)"/>
    <path id="Tracé_346" data-name="Tracé 346" class="cls-1" d="M14.4,17.241H11.911c-.086,0-.086,0-.172-.086l-.257-.257a3.477,3.477,0,0,1-.429-.772c-.172-.257-.257-.429-.429-.686l-.257-.257h-.086c-.086.086-.172.086-.172.172-.172.172-.257.429-.429.6-.172.257-.343.6-.515.858-.086.172-.172.257-.343.257H5.992a.227.227,0,0,1-.257-.257v-.257a1.59,1.59,0,0,1,.172-.6,8.658,8.658,0,0,1,.6-1.287c.257-.429.515-.944.772-1.373.086-.172.172-.429.257-.6s0-.257-.172-.343H6.593a1.675,1.675,0,0,1-.6-.086,1.143,1.143,0,0,1-.429-.257.788.788,0,0,1-.172-.858,1.383,1.383,0,0,1,.343-.6,5.094,5.094,0,0,1,.686-.343c.515-.257,1.115-.429,1.63-.686a5.467,5.467,0,0,0,.6-.172.084.084,0,0,0,.086-.086,1.088,1.088,0,0,1,.086-.515,1.384,1.384,0,0,1,.257-.772,1.328,1.328,0,0,1,.944-.686,1.454,1.454,0,0,1,.858,0,1.78,1.78,0,0,1,.858.515,4.426,4.426,0,0,0,.172.944v.429c0,.086,0,.086.086.086s.257.086.343.086a12.508,12.508,0,0,1,1.63.6,6.4,6.4,0,0,1,1.029.6,1.354,1.354,0,0,1,.429.686v.172h0v.172a1.065,1.065,0,0,1-.515.686,1.46,1.46,0,0,1-.6.086h-.686a.315.315,0,0,0-.257.086c-.086.086-.086.086-.086.172v.172c.086.257.257.515.343.772a9.376,9.376,0,0,1,.686,1.287c.172.343.343.772.515,1.115a2.5,2.5,0,0,1,.172.772c0,.172-.086.257-.257.343-.172.172-.257.172-.343.172" transform="translate(-1.188 -1.456)"/>
    <path id="Tracé_347" data-name="Tracé 347" class="cls-2" d="M14.4,17.241H11.911c-.086,0-.086,0-.172-.086l-.257-.257a3.477,3.477,0,0,1-.429-.772c-.172-.257-.257-.429-.429-.686l-.257-.257h-.086c-.086.086-.172.086-.172.172-.172.172-.257.429-.429.6-.172.257-.343.6-.515.858-.086.172-.172.257-.343.257H5.992a.227.227,0,0,1-.257-.257v-.257a1.59,1.59,0,0,1,.172-.6,8.658,8.658,0,0,1,.6-1.287c.257-.429.515-.944.772-1.373.086-.172.172-.429.257-.6s0-.257-.172-.343H6.593a1.675,1.675,0,0,1-.6-.086,1.143,1.143,0,0,1-.429-.257.788.788,0,0,1-.172-.858,1.383,1.383,0,0,1,.343-.6,5.094,5.094,0,0,1,.686-.343c.515-.257,1.115-.429,1.63-.686a5.467,5.467,0,0,0,.6-.172.084.084,0,0,0,.086-.086,1.088,1.088,0,0,1,.086-.515,1.384,1.384,0,0,1,.257-.772,1.328,1.328,0,0,1,.944-.686,1.454,1.454,0,0,1,.858,0,1.78,1.78,0,0,1,.858.515,4.426,4.426,0,0,0,.172.944v.429c0,.086,0,.086.086.086s.257.086.343.086a12.508,12.508,0,0,1,1.63.6,6.4,6.4,0,0,1,1.029.6,1.354,1.354,0,0,1,.429.686v.172h0v.172a1.065,1.065,0,0,1-.515.686,1.46,1.46,0,0,1-.6.086h-.686a.315.315,0,0,0-.257.086c-.086.086-.086.086-.086.172v.172c.086.257.257.515.343.772a9.376,9.376,0,0,1,.686,1.287c.172.343.343.772.515,1.115a2.5,2.5,0,0,1,.172.772c0,.172-.086.257-.257.343C14.571,17.241,14.485,17.241,14.4,17.241Z" transform="translate(-1.188 -1.456)"/>
    <path id="Tracé_348" data-name="Tracé 348" class="cls-1" d="M27.328,17.212H24.84c-.086,0-.086,0-.172-.086l-.257-.257a3.477,3.477,0,0,1-.429-.772c-.172-.257-.257-.429-.429-.686l-.257-.257H23.21c-.086.086-.172.086-.172.172-.172.172-.257.429-.429.6-.172.257-.343.6-.515.858-.086.172-.172.257-.343.257H19.092a.227.227,0,0,1-.257-.257v-.257a1.59,1.59,0,0,1,.172-.6,8.658,8.658,0,0,1,.6-1.287c.257-.429.515-.944.772-1.373.086-.172.172-.429.257-.6s0-.257-.172-.343h-.772a1.675,1.675,0,0,1-.6-.086,1.143,1.143,0,0,1-.429-.257.788.788,0,0,1-.172-.858,1.383,1.383,0,0,1,.343-.6,4.029,4.029,0,0,1,.772-.515c.515-.257,1.115-.429,1.63-.686.172-.086.343-.086.515-.172a.084.084,0,0,0,.086-.086,1.088,1.088,0,0,1,.086-.515,1.384,1.384,0,0,1,.257-.772,1.328,1.328,0,0,1,.944-.686,1.454,1.454,0,0,1,.858,0,1.78,1.78,0,0,1,.858.515,4.836,4.836,0,0,1,.343,1.029v.429c0,.086,0,.086.086.086s.257.086.343.086a12.508,12.508,0,0,1,1.63.6,6.4,6.4,0,0,1,1.029.6,1.354,1.354,0,0,1,.429.686v.172h0v.172a1.065,1.065,0,0,1-.515.686,1.46,1.46,0,0,1-.6.086H26.9a.315.315,0,0,0-.257.086c-.086.086-.086.086-.086.172v.172c.086.257.257.515.343.772a9.376,9.376,0,0,1,.686,1.287c.172.343.343.772.515,1.115a2.5,2.5,0,0,1,.172.772c0,.172-.086.257-.257.343-.515.257-.6.257-.686.257" transform="translate(-3.05 -1.427)"/>
    <path id="Tracé_349" data-name="Tracé 349" class="cls-2" d="M27.328,17.212H24.84c-.086,0-.086,0-.172-.086l-.257-.257a3.477,3.477,0,0,1-.429-.772c-.172-.257-.257-.429-.429-.686l-.257-.257H23.21c-.086.086-.172.086-.172.172-.172.172-.257.429-.429.6-.172.257-.343.6-.515.858-.086.172-.172.257-.343.257H19.092a.227.227,0,0,1-.257-.257v-.257a1.59,1.59,0,0,1,.172-.6,8.658,8.658,0,0,1,.6-1.287c.257-.429.515-.944.772-1.373.086-.172.172-.429.257-.6s0-.257-.172-.343h-.772a1.675,1.675,0,0,1-.6-.086,1.143,1.143,0,0,1-.429-.257.788.788,0,0,1-.172-.858,1.383,1.383,0,0,1,.343-.6,4.029,4.029,0,0,1,.772-.515c.515-.257,1.115-.429,1.63-.686.172-.086.343-.086.515-.172a.084.084,0,0,0,.086-.086,1.088,1.088,0,0,1,.086-.515,1.384,1.384,0,0,1,.257-.772,1.328,1.328,0,0,1,.944-.686,1.454,1.454,0,0,1,.858,0,1.78,1.78,0,0,1,.858.515,4.836,4.836,0,0,1,.343,1.029v.429c0,.086,0,.086.086.086s.257.086.343.086a12.508,12.508,0,0,1,1.63.6,6.4,6.4,0,0,1,1.029.6,1.354,1.354,0,0,1,.429.686v.172h0v.172a1.065,1.065,0,0,1-.515.686,1.46,1.46,0,0,1-.6.086H26.9a.315.315,0,0,0-.257.086c-.086.086-.086.086-.086.172v.172c.086.257.257.515.343.772a9.376,9.376,0,0,1,.686,1.287c.172.343.343.772.515,1.115a2.5,2.5,0,0,1,.172.772c0,.172-.086.257-.257.343C27.5,17.212,27.413,17.212,27.328,17.212Z" transform="translate(-3.05 -1.427)"/>
    <path id="Tracé_350" data-name="Tracé 350" class="cls-1" d="M21.324,20.085H18.407c-.086,0-.172,0-.172-.086a1.184,1.184,0,0,1-.343-.257c-.172-.257-.343-.6-.515-.858l-.515-.772-.257-.257h-.172c-.086.086-.172.086-.172.172a3.01,3.01,0,0,0-.429.686c-.172.343-.429.686-.6,1.029a.856.856,0,0,1-.429.343h-3.26c-.172,0-.257-.086-.343-.257v-.343a1.616,1.616,0,0,1,.172-.686,11.168,11.168,0,0,1,.686-1.458c.257-.515.6-1.029.858-1.544.086-.257.257-.429.257-.686.086-.172,0-.343-.172-.343-.086,0-.172-.086-.257-.086h-.772a1.889,1.889,0,0,1-.686-.086c-.172-.086-.343-.086-.429-.257a1.228,1.228,0,0,1-.257-.944,1.868,1.868,0,0,1,.429-.686,3.542,3.542,0,0,1,.944-.6,17.469,17.469,0,0,1,1.887-.772,1.59,1.59,0,0,1,.6-.172.084.084,0,0,0,.086-.086,1.46,1.46,0,0,1,.086-.6,1.449,1.449,0,0,1,.257-.858,1.557,1.557,0,0,1,1.2-1.029,1.762,1.762,0,0,1,.944,0,1.237,1.237,0,0,1,.944.6,1.887,1.887,0,0,1,.343,1.115,1.088,1.088,0,0,0,.086.515c0,.086,0,.086.086.086.086.086.257.086.343.172a11.207,11.207,0,0,1,1.8.686,3.6,3.6,0,0,1,1.2.772.9.9,0,0,1,.429.772v.172h0v.172a1.091,1.091,0,0,1-.6.772,1.889,1.889,0,0,1-.686.086h-.772a.516.516,0,0,0-.343.086c-.086.086-.086.086-.086.172v.172a4.6,4.6,0,0,0,.429.944,12.915,12.915,0,0,0,.858,1.458,6.641,6.641,0,0,1,.6,1.373,3.048,3.048,0,0,1,.172.858c0,.257-.086.343-.343.343,0,.172-.086.172-.172.172" transform="translate(-1.935 -1.641)"/>
    <path id="Tracé_351" data-name="Tracé 351" class="cls-2" d="M21.324,20.085H18.407c-.086,0-.172,0-.172-.086a1.184,1.184,0,0,1-.343-.257c-.172-.257-.343-.6-.515-.858l-.515-.772-.257-.257h-.172c-.086.086-.172.086-.172.172a3.01,3.01,0,0,0-.429.686c-.172.343-.429.686-.6,1.029a.856.856,0,0,1-.429.343h-3.26c-.172,0-.257-.086-.343-.257v-.343a1.616,1.616,0,0,1,.172-.686,11.168,11.168,0,0,1,.686-1.458c.257-.515.6-1.029.858-1.544.086-.257.257-.429.257-.686.086-.172,0-.343-.172-.343-.086,0-.172-.086-.257-.086h-.772a1.889,1.889,0,0,1-.686-.086c-.172-.086-.343-.086-.429-.257a1.228,1.228,0,0,1-.257-.944,1.868,1.868,0,0,1,.429-.686,3.542,3.542,0,0,1,.944-.6,17.469,17.469,0,0,1,1.887-.772,1.59,1.59,0,0,1,.6-.172.084.084,0,0,0,.086-.086,1.46,1.46,0,0,1,.086-.6,1.449,1.449,0,0,1,.257-.858,1.557,1.557,0,0,1,1.2-1.029,1.762,1.762,0,0,1,.944,0,1.237,1.237,0,0,1,.944.6,1.887,1.887,0,0,1,.343,1.115,1.088,1.088,0,0,0,.086.515c0,.086,0,.086.086.086.086.086.257.086.343.172a11.207,11.207,0,0,1,1.8.686,3.6,3.6,0,0,1,1.2.772.9.9,0,0,1,.429.772v.172h0v.172a1.091,1.091,0,0,1-.6.772,1.889,1.889,0,0,1-.686.086h-.772a.516.516,0,0,0-.343.086c-.086.086-.086.086-.086.172v.172a4.6,4.6,0,0,0,.429.944,12.915,12.915,0,0,0,.858,1.458,6.641,6.641,0,0,1,.6,1.373,3.048,3.048,0,0,1,.172.858c0,.257-.086.343-.343.343C21.5,20.085,21.409,20.085,21.324,20.085Z" transform="translate(-1.935 -1.641)"/>
  </g>
</svg>
