<svg xmlns="http://www.w3.org/2000/svg" xmlns:xlink="http://www.w3.org/1999/xlink" viewBox="1537.461 2445.074 29.31 29.31">
  <defs>
    <style>
      .cls-1 {
        fill: url(#linear-gradient);
      }

      .cls-2 {
        fill: #f2f4f6;
      }
    </style>
    <linearGradient id="linear-gradient" y1="0.5" x2="1" y2="0.5" gradientUnits="objectBoundingBox">
      <stop offset="0" stop-color="#3cb39e"/>
      <stop offset="1" stop-color="#0e78b9"/>
    </linearGradient>
  </defs>
  <g id="Groupe_410" data-name="Groupe 410" transform="translate(1333.277 1818.277)">
    <path id="Tracé_457" data-name="Tracé 457" class="cls-1" d="M14.655,0A14.8,14.8,0,0,1,25.67,4.989a14.385,14.385,0,0,1,3.64,9.666A14.655,14.655,0,1,1,14.655,0Z" transform="translate(204.183 626.796)"/>
    <path id="Tracé_456" data-name="Tracé 456" class="cls-2" d="M22.089,22.286H17.6a.519.519,0,0,1-.345-.086c-.259-.086-.345-.259-.518-.432-.259-.432-.6-.95-.864-1.382s-.518-.777-.777-1.209a1.041,1.041,0,0,0-.432-.432c-.086,0-.173-.086-.259,0s-.259.173-.345.259a12.634,12.634,0,0,0-.777,1.123,15.022,15.022,0,0,0-.95,1.555,1.073,1.073,0,0,1-.691.518H6.8a.547.547,0,0,1-.518-.432v-.518c.086-.345.173-.777.259-1.123.345-.777.691-1.468,1.123-2.246.432-.864.95-1.641,1.382-2.5a4.338,4.338,0,0,0,.432-1.123c.086-.345,0-.518-.345-.6-.086,0-.259-.086-.345-.086a4.925,4.925,0,0,1-1.123-.086A2.191,2.191,0,0,1,6.629,13.3a1.187,1.187,0,0,1-.691-.432,1.657,1.657,0,0,1-.345-1.555,2.226,2.226,0,0,1,.691-1.123,6.6,6.6,0,0,1,1.382-.95A21.071,21.071,0,0,1,10.6,8.035c.345-.086.6-.259.95-.345.086,0,.086-.086.086-.173,0-.345.086-.691.086-.95a3.7,3.7,0,0,1,.432-1.382A2.287,2.287,0,0,1,13.8,3.89a4.7,4.7,0,0,1,1.555,0,2.5,2.5,0,0,1,1.555.95,4.512,4.512,0,0,1,.6,1.814c0,.259.086.6.086.864,0,.086,0,.086.086.173a1.6,1.6,0,0,0,.6.173,20.445,20.445,0,0,1,2.936,1.123,9.247,9.247,0,0,1,1.814,1.123,2.139,2.139,0,0,1,.691,1.209v.6a1.38,1.38,0,0,1-1.036,1.209,5.055,5.055,0,0,1-1.123.173,5.7,5.7,0,0,0-1.209.086,1.228,1.228,0,0,0-.518.173.449.449,0,0,0-.173.345.519.519,0,0,0,.086.345,11.243,11.243,0,0,0,.691,1.468l1.3,2.332a22.085,22.085,0,0,1,.95,2.073,3.58,3.58,0,0,1,.259,1.382.571.571,0,0,1-.518.6.345.345,0,0,1-.345.173" transform="translate(204.511 626.824)"/>
  </g>
</svg>
