<svg xmlns="http://www.w3.org/2000/svg" viewBox="1098.862 2446.04 28.094 28.094">
  <defs>
    <style>
      .cls-1 {
        fill: #f2f4f6;
      }

      .cls-2, .cls-3 {
        fill: none;
        stroke: #9d9d9c;
        stroke-width: 1.5px;
      }

      .cls-3 {
        stroke-miterlimit: 10;
      }
    </style>
  </defs>
  <g id="Groupe_117" data-name="Groupe 117" transform="translate(1099.612 2446.79)">
    <path id="Tracé_352" data-name="Tracé 352" class="cls-1" d="M27.18,13.8A13.34,13.34,0,1,1,13.8.5,13.438,13.438,0,0,1,27.18,13.8" transform="translate(-0.5 -0.5)"/>
    <path id="Tracé_374" data-name="Tracé 374" class="cls-2" d="M13.3,0a13.429,13.429,0,0,1,9.995,4.526,13.052,13.052,0,0,1,3.3,8.771A13.3,13.3,0,1,1,13.3,0Z" transform="translate(0 0)"/>
    <path id="Tracé_353" data-name="Tracé 353" class="cls-1" d="M21.978,22.162H17.517a.516.516,0,0,1-.343-.086c-.257-.086-.343-.257-.515-.429-.257-.429-.6-.944-.858-1.373s-.515-.772-.772-1.2a1.034,1.034,0,0,0-.429-.429c-.086,0-.172-.086-.257,0s-.257.172-.343.257a12.549,12.549,0,0,0-.772,1.115,14.922,14.922,0,0,0-.944,1.544,1.065,1.065,0,0,1-.686.515h-4.8a.544.544,0,0,1-.515-.429v-.515c.086-.343.172-.772.257-1.115.343-.772.686-1.458,1.115-2.23.429-.858.944-1.63,1.373-2.488a4.309,4.309,0,0,0,.429-1.115c.086-.343,0-.515-.343-.6-.086,0-.257-.086-.343-.086a4.892,4.892,0,0,1-1.115-.086,2.176,2.176,0,0,1-1.029-.172,1.179,1.179,0,0,1-.686-.429,1.646,1.646,0,0,1-.343-1.544,2.211,2.211,0,0,1,.686-1.115,6.555,6.555,0,0,1,1.373-.944,20.93,20.93,0,0,1,2.917-1.2c.343-.086.6-.257.944-.343.086,0,.086-.086.086-.172,0-.343.086-.686.086-.944a3.675,3.675,0,0,1,.429-1.373,2.272,2.272,0,0,1,1.63-1.287,4.665,4.665,0,0,1,1.544,0,2.48,2.48,0,0,1,1.544.944,4.482,4.482,0,0,1,.6,1.8c0,.257.086.6.086.858,0,.086,0,.086.086.172a1.59,1.59,0,0,0,.6.172A20.308,20.308,0,0,1,21.12,8.951a9.186,9.186,0,0,1,1.8,1.115,2.125,2.125,0,0,1,.686,1.2v.6a1.371,1.371,0,0,1-1.029,1.2,5.021,5.021,0,0,1-1.115.172,5.664,5.664,0,0,0-1.2.086,1.219,1.219,0,0,0-.515.172.446.446,0,0,0-.172.343.516.516,0,0,0,.086.343,11.168,11.168,0,0,0,.686,1.458l1.287,2.316a21.937,21.937,0,0,1,.944,2.059,3.556,3.556,0,0,1,.257,1.373.567.567,0,0,1-.515.6.343.343,0,0,1-.343.172" transform="translate(-1.217 -0.973)"/>
    <path id="Tracé_354" data-name="Tracé 354" class="cls-3" d="M21.978,22.162H17.517a.516.516,0,0,1-.343-.086c-.257-.086-.343-.257-.515-.429-.257-.429-.6-.944-.858-1.373s-.515-.772-.772-1.2a1.034,1.034,0,0,0-.429-.429c-.086,0-.172-.086-.257,0s-.257.172-.343.257a12.549,12.549,0,0,0-.772,1.115,14.922,14.922,0,0,0-.944,1.544,1.065,1.065,0,0,1-.686.515h-4.8a.544.544,0,0,1-.515-.429v-.515c.086-.343.172-.772.257-1.115.343-.772.686-1.458,1.115-2.23.429-.858.944-1.63,1.373-2.488a4.309,4.309,0,0,0,.429-1.115c.086-.343,0-.515-.343-.6-.086,0-.257-.086-.343-.086a4.892,4.892,0,0,1-1.115-.086,2.176,2.176,0,0,1-1.029-.172,1.179,1.179,0,0,1-.686-.429,1.646,1.646,0,0,1-.343-1.544,2.211,2.211,0,0,1,.686-1.115,6.555,6.555,0,0,1,1.373-.944,20.93,20.93,0,0,1,2.917-1.2c.343-.086.6-.257.944-.343.086,0,.086-.086.086-.172,0-.343.086-.686.086-.944a3.675,3.675,0,0,1,.429-1.373,2.272,2.272,0,0,1,1.63-1.287,4.665,4.665,0,0,1,1.544,0,2.48,2.48,0,0,1,1.544.944,4.482,4.482,0,0,1,.6,1.8c0,.257.086.6.086.858,0,.086,0,.086.086.172a1.59,1.59,0,0,0,.6.172A20.308,20.308,0,0,1,21.12,8.951a9.186,9.186,0,0,1,1.8,1.115,2.125,2.125,0,0,1,.686,1.2v.6a1.371,1.371,0,0,1-1.029,1.2,5.021,5.021,0,0,1-1.115.172,5.664,5.664,0,0,0-1.2.086,1.219,1.219,0,0,0-.515.172.446.446,0,0,0-.172.343.516.516,0,0,0,.086.343,11.168,11.168,0,0,0,.686,1.458l1.287,2.316a21.937,21.937,0,0,1,.944,2.059,3.556,3.556,0,0,1,.257,1.373.567.567,0,0,1-.515.6A.343.343,0,0,1,21.978,22.162Z" transform="translate(-1.217 -0.973)"/>
  </g>
</svg>
