<svg xmlns="http://www.w3.org/2000/svg" viewBox="1165.483 2444.324 22.947 32.126">
  <defs>
    <style>
      .cls-1, .cls-3 {
        fill: none;
        stroke: #9d9d9c;
        stroke-miterlimit: 10;
      }

      .cls-1 {
        stroke-width: 1.5px;
      }

      .cls-2 {
        fill: #f2f4f6;
      }

      .cls-3 {
        stroke-width: 1.4px;
      }
    </style>
  </defs>
  <g id="Groupe_118" data-name="Groupe 118" transform="translate(1166.233 2445.074)">
    <path id="Tracé_355" data-name="Tracé 355" class="cls-1" d="M18.187,20.4a6.949,6.949,0,1,1-6.949-6.949A6.92,6.92,0,0,1,18.187,20.4Zm1.458,0A8.407,8.407,0,1,1,11.238,12,8.421,8.421,0,0,1,19.645,20.4Zm2.4,0A10.724,10.724,0,1,1,11.238,9.679,10.727,10.727,0,0,1,22.047,20.4Zm-6.863-9.866h0L21.189.5H14.755l-3.6,6.005L7.549.5H1.2L7.206,10.537" transform="translate(-0.6 -0.5)"/>
    <path id="Tracé_356" data-name="Tracé 356" class="cls-2" d="M14.9,25.619H13.351c-.086,0-.086-.086-.172-.172-.086-.172-.172-.257-.257-.429a1.184,1.184,0,0,0-.257-.343c0-.086-.086-.086-.172-.172h-.086l-.086.086c-.086.086-.172.257-.257.343a1.8,1.8,0,0,1-.343.515c-.086.086-.086.172-.257.172H9.834a.185.185,0,0,1-.172-.172v-.172c0-.086.086-.257.086-.343.086-.257.257-.515.343-.772.172-.257.257-.515.429-.772.086-.086.086-.257.172-.343,0-.086,0-.172-.086-.172h-.429a.516.516,0,0,1-.343-.086c-.086,0-.172-.086-.257-.172a.4.4,0,0,1-.086-.515c0-.172.086-.257.257-.343a1.506,1.506,0,0,1,.429-.343,4.182,4.182,0,0,1,.944-.343c.086,0,.172-.086.343-.086v-.429a.655.655,0,0,1,.172-.429c.086-.257.257-.343.515-.429h.515c.172,0,.343.172.515.343a1.24,1.24,0,0,1,.172.6v.343a.3.3,0,0,1,.172.086,4.182,4.182,0,0,1,.944.343,1.383,1.383,0,0,1,.6.343c.086.086.172.257.257.343v.086h0v.086a.57.57,0,0,1-.343.429c-.086,0-.257.086-.343.086h-.343c-.086,0-.086,0-.172.086l-.086.086v.086l.257.515c.172.257.257.515.429.772.086.257.257.429.343.686a.773.773,0,0,1,.086.429.185.185,0,0,1-.172.172H14.9" transform="translate(-1.856 -3.229)"/>
    <path id="Tracé_357" data-name="Tracé 357" class="cls-3" d="M14.9,25.619H13.351c-.086,0-.086-.086-.172-.172-.086-.172-.172-.257-.257-.429a1.184,1.184,0,0,0-.257-.343c0-.086-.086-.086-.172-.172h-.086l-.086.086c-.086.086-.172.257-.257.343a1.8,1.8,0,0,1-.343.515c-.086.086-.086.172-.257.172H9.834a.185.185,0,0,1-.172-.172v-.172c0-.086.086-.257.086-.343.086-.257.257-.515.343-.772.172-.257.257-.515.429-.772.086-.086.086-.257.172-.343,0-.086,0-.172-.086-.172h-.429a.516.516,0,0,1-.343-.086c-.086,0-.172-.086-.257-.172a.4.4,0,0,1-.086-.515c0-.172.086-.257.257-.343a1.506,1.506,0,0,1,.429-.343,4.182,4.182,0,0,1,.944-.343c.086,0,.172-.086.343-.086v-.429a.655.655,0,0,1,.172-.429c.086-.257.257-.343.515-.429h.515c.172,0,.343.172.515.343a1.24,1.24,0,0,1,.172.6v.343a.3.3,0,0,1,.172.086,4.182,4.182,0,0,1,.944.343,1.383,1.383,0,0,1,.6.343c.086.086.172.257.257.343v.086h0v.086a.57.57,0,0,1-.343.429c-.086,0-.257.086-.343.086h-.343c-.086,0-.086,0-.172.086l-.086.086v.086l.257.515c.172.257.257.515.429.772.086.257.257.429.343.686a.773.773,0,0,1,.086.429.185.185,0,0,1-.172.172Z" transform="translate(-1.856 -3.229)"/>
  </g>
</svg>
