<svg xmlns="http://www.w3.org/2000/svg" xmlns:xlink="http://www.w3.org/1999/xlink" viewBox="1418.723 2158.414 46.888 58.186">
  <defs>
    <style>
      .cls-1 {
        fill: #f2f4f6;
      }

      .cls-2 {
        clip-path: url(#clip-path);
      }

      .cls-3, .cls-4, .cls-6 {
        fill: none;
        stroke: #575756;
      }

      .cls-3, .cls-6 {
        stroke-miterlimit: 10;
      }

      .cls-3, .cls-4 {
        stroke-width: 1.8px;
      }

      .cls-5 {
        fill: #575756;
      }

      .cls-6 {
        stroke-width: 0.545px;
      }
    </style>
    <clipPath id="clip-path">
      <rect id="Rectangle_207" data-name="Rectangle 207" width="46.888" height="58.186"/>
    </clipPath>
  </defs>
  <g id="Groupe_220" data-name="Groupe 220" transform="translate(1418.723 2158.414)">
    <path id="Tracé_367" data-name="Tracé 367" class="cls-1" d="M.3,15.6v22.6l22.314,11.3L45.493,37.63V15.316L22.9,4.3Z" transform="translate(0.547 7.846)"/>
    <g id="Groupe_128" data-name="Groupe 128">
      <g id="Groupe_126" data-name="Groupe 126" class="cls-2">
        <path id="Tracé_368" data-name="Tracé 368" class="cls-3" d="M.3,15.6v22.6l22.314,11.3L45.493,37.63V15.316L22.9,4.3Z" transform="translate(0.547 7.846)"/>
      </g>
      <g id="Groupe_127" data-name="Groupe 127" class="cls-2">
        <path id="Tracé_378" data-name="Tracé 378" class="cls-4" d="M0,0V22.314" transform="translate(23.444 34.46)"/>
      </g>
    </g>
    <path id="Tracé_369" data-name="Tracé 369" class="cls-1" d="M.3,8.3,22.9,19.316,44.928,8.3Z" transform="translate(0.547 15.144)"/>
    <g id="Groupe_132" data-name="Groupe 132">
      <g id="Groupe_129" data-name="Groupe 129" class="cls-2">
        <path id="Tracé_370" data-name="Tracé 370" class="cls-3" d="M.3,8.3,22.9,19.316,44.928,8.3" transform="translate(0.547 15.144)"/>
      </g>
      <g id="Groupe_130" data-name="Groupe 130" class="cls-2">
        <path id="Tracé_371" data-name="Tracé 371" class="cls-5" d="M34.53,27.27c-.282-.282-.282-.565-.565-.847a15.138,15.138,0,0,1-1.412-3.107v-.565a1.038,1.038,0,0,1,.282-.847,1.7,1.7,0,0,1,1.13-.282h2.542a7.82,7.82,0,0,0,2.542-.282,3,3,0,0,0,2.26-2.542v-1.13A5.462,5.462,0,0,0,39.9,15.125a11.848,11.848,0,0,0-3.954-2.542,43.91,43.91,0,0,0-6.5-2.26c-.565-.282-.847-.282-1.412-.565a.277.277,0,0,1-.282-.282A5.514,5.514,0,0,0,27.469,7.5a9.489,9.489,0,0,0-1.412-3.954A4.263,4.263,0,0,0,22.949.437a6.885,6.885,0,0,0-3.389,0,5.331,5.331,0,0,0-3.672,2.825,6.438,6.438,0,0,0-.847,3.107,6.219,6.219,0,0,0-.282,2.26c0,.282,0,.282-.282.282a5.237,5.237,0,0,1-1.977.565A45.067,45.067,0,0,0,6,12.3a11.663,11.663,0,0,0-3.107,1.977A4.393,4.393,0,0,0,1.2,16.537v1.977a3,3,0,0,0,2.542,2.542,9.609,9.609,0,0,0,2.825.282H8.544a1.038,1.038,0,0,1,.847.282c.565,0,.847.565.565,1.13,0,.847-.565,1.412-.847,2.26a16.772,16.772,0,0,0-1.13,2.26L20.407,33.2l1.13.565Z" transform="translate(2.189 0.411)"/>
      </g>
      <g id="Groupe_131" data-name="Groupe 131" class="cls-2">
        <path id="Tracé_372" data-name="Tracé 372" class="cls-6" d="M34.53,27.27c-.282-.282-.282-.565-.565-.847a15.138,15.138,0,0,1-1.412-3.107v-.565a1.038,1.038,0,0,1,.282-.847,1.7,1.7,0,0,1,1.13-.282h2.542a7.82,7.82,0,0,0,2.542-.282,3,3,0,0,0,2.26-2.542v-1.13A5.462,5.462,0,0,0,39.9,15.125a11.848,11.848,0,0,0-3.954-2.542,43.91,43.91,0,0,0-6.5-2.26c-.565-.282-.847-.282-1.412-.565a.277.277,0,0,1-.282-.282A5.514,5.514,0,0,0,27.469,7.5a9.489,9.489,0,0,0-1.412-3.954A4.263,4.263,0,0,0,22.949.437a6.885,6.885,0,0,0-3.389,0,5.331,5.331,0,0,0-3.672,2.825,6.438,6.438,0,0,0-.847,3.107,6.219,6.219,0,0,0-.282,2.26c0,.282,0,.282-.282.282a5.237,5.237,0,0,1-1.977.565A45.067,45.067,0,0,0,6,12.3a11.663,11.663,0,0,0-3.107,1.977A4.393,4.393,0,0,0,1.2,16.537v1.977a3,3,0,0,0,2.542,2.542,9.609,9.609,0,0,0,2.825.282H8.544a1.038,1.038,0,0,1,.847.282c.565,0,.847.565.565,1.13,0,.847-.565,1.412-.847,2.26a16.772,16.772,0,0,0-1.13,2.26L20.407,33.2l1.13.565Z" transform="translate(2.189 0.411)"/>
      </g>
    </g>
  </g>
</svg>
