<svg xmlns="http://www.w3.org/2000/svg" xmlns:xlink="http://www.w3.org/1999/xlink" viewBox="3782 2259.944 49.611 59.563">
  <defs>
    <style>
      .cls-1 {
        fill: url(#linear-gradient);
      }

      .cls-2 {
        fill: url(#linear-gradient-2);
      }

      .cls-3 {
        fill: #fff;
      }

      .cls-4 {
        fill: url(#linear-gradient-3);
      }

      .cls-5 {
        fill: url(#linear-gradient-4);
      }
    </style>
    <linearGradient id="linear-gradient" y1="0.504" x2="1.001" y2="0.504" gradientUnits="objectBoundingBox">
      <stop offset="0" stop-color="#3eb59d"/>
      <stop offset="0.759" stop-color="#1187b8"/>
      <stop offset="1" stop-color="#0e77ba"/>
    </linearGradient>
    <linearGradient id="linear-gradient-2" x1="0.033" y1="0.496" x2="1.011" y2="0.496" xlink:href="#linear-gradient"/>
    <linearGradient id="linear-gradient-3" x1="0" y1="0.497" x2="0.997" y2="0.497" xlink:href="#linear-gradient"/>
    <linearGradient id="linear-gradient-4" x1="0.012" y1="0.501" x2="1.012" y2="0.501" xlink:href="#linear-gradient"/>
  </defs>
  <g id="Groupe_409" data-name="Groupe 409" transform="translate(3782 2259.919)">
    <path id="Tracé_422" data-name="Tracé 422" class="cls-1" d="M46.81,19.378l-22.4-11.4L1.8,19.378l-1.4-2.6,23.2-12a1.709,1.709,0,0,1,1.4,0l23.2,11.8Z" transform="translate(0.4 4.602)"/>
    <path id="Tracé_423" data-name="Tracé 423" class="cls-2" d="M40.544,42.784h-10.6a1.2,1.2,0,0,1-.8-.2,5.3,5.3,0,0,1-1.2-1c-.6-1-1.4-2.2-2-3.2s-1.2-1.8-1.8-2.8a2.411,2.411,0,0,0-1-1c-.2,0-.4-.2-.6,0s-.6.4-.8.6c-.6.8-1.2,1.8-1.8,2.6-.8,1.2-1.6,2.6-2.4,3.8,0,.4-.4.8-1.2,1H4.737a1.268,1.268,0,0,1-1.2-1v-1.2c.2-.8.4-1.8.6-2.6a33.281,33.281,0,0,1,2.6-5.4c1-2,2.2-3.8,3.2-5.8.4-.8.8-1.6,1.2-2.6.2-.8,0-1.2-.8-1.4-.2,0-.6-.2-.8-.2h-2.8a5.074,5.074,0,0,1-2.4-.4,4.089,4.089,0,0,1-1.8-1,4.46,4.46,0,0,1-.8-3.6,5.155,5.155,0,0,1,1.6-2.6,19.82,19.82,0,0,1,3.4-2.2,42.605,42.605,0,0,1,7-2.8,9.751,9.751,0,0,0,2.2-.8c.2,0,.4,0,.4-.2a9.739,9.739,0,0,1,.2-2.4,8.57,8.57,0,0,1,1-3.2,5.7,5.7,0,0,1,3.8-3,9.692,9.692,0,0,1,3.4,0,4.6,4.6,0,0,1,3.6,2.4,10.451,10.451,0,0,1,1.4,4.2c0,.6.2,1.4.2,2,0,.2,0,.4.2.4a3.709,3.709,0,0,0,1.4.4,68.466,68.466,0,0,1,6.8,2.6,15.415,15.415,0,0,1,4.2,2.8,4.954,4.954,0,0,1,1.6,2.8v1.4a3.2,3.2,0,0,1-2.4,2.8,11.708,11.708,0,0,1-2.6.4,14.171,14.171,0,0,0-2.8.2,2.843,2.843,0,0,0-1.2.4,1.039,1.039,0,0,0-.4.8,1.2,1.2,0,0,0,.2.8,17.734,17.734,0,0,0,1.6,3.4l3,5.4a37.783,37.783,0,0,1,2.2,5,8.293,8.293,0,0,1,.6,3.2,1.323,1.323,0,0,1-1.2,1.4c0-.2-.4-.2-.6-.2" transform="translate(1.665)"/>
    <g id="Groupe_368" data-name="Groupe 368" transform="translate(0 21.43)">
      <path id="Tracé_424" data-name="Tracé 424" class="cls-3" d="M24.1,23.2.7,11.4V34.8l23.4,11.8,23.2-11.8V11.4Z" transform="translate(0.7 -10.05)"/>
      <path id="Tracé_425" data-name="Tracé 425" class="cls-4" d="M24.805,48.883a.735.735,0,0,1-.6-.2L.8,36.881a2.025,2.025,0,0,1-.8-1.4v-23.4a1.1,1.1,0,0,1,.8-1.2,1.709,1.709,0,0,1,1.4,0l22.6,11.6,22.6-11.6a1.709,1.709,0,0,1,1.4,0,1.645,1.645,0,0,1,.8,1.2V35.48a2.025,2.025,0,0,1-.8,1.4l-23.2,11.8A1.512,1.512,0,0,1,24.805,48.883ZM3,34.48l21.8,11.2,21.8-11.2v-20l-21.2,10.8a1.709,1.709,0,0,1-1.4,0L3,14.476Z" transform="translate(0 -10.725)"/>
    </g>
    <g id="Groupe_369" data-name="Groupe 369" transform="translate(23.205 34.582)">
      <line id="Ligne_48" data-name="Ligne 48" class="cls-3" y2="23.405" transform="translate(1.6)"/>
      <rect id="Rectangle_274" data-name="Rectangle 274" class="cls-5" width="3.001" height="23.405"/>
    </g>
  </g>
</svg>
