<svg xmlns="http://www.w3.org/2000/svg" viewBox="2268 458.251 50 50.037">
  <defs>
    <style>
      .cls-1 {
        fill: #c7c7c7;
      }
    </style>
  </defs>
  <path id="Tracé_66" data-name="Tracé 66" class="cls-1" d="M45.564,50.049h-12.1c-.067-.034-.168-.034-.235-.067a6.638,6.638,0,0,1-.871-.2,2.831,2.831,0,0,1-1.341-1.24c-.8-1.24-1.575-2.514-2.346-3.787-.7-1.106-1.374-2.212-2.112-3.285a3.369,3.369,0,0,0-1.14-1.14.56.56,0,0,0-.6,0,3.95,3.95,0,0,0-.871.8q-1.056,1.508-2.011,3.017c-.9,1.441-1.776,2.916-2.715,4.357a2.911,2.911,0,0,1-1.877,1.441,3.693,3.693,0,0,1-.6.067H4.673l-1.006-.1c-.637-.1-1.274-.369-1.341-1.207a6.91,6.91,0,0,1,.034-1.441A11.021,11.021,0,0,1,3.1,44.251a44.26,44.26,0,0,1,2.916-6.268c1.24-2.313,2.547-4.558,3.787-6.871a12.321,12.321,0,0,0,1.307-3.05,1.176,1.176,0,0,0-.871-1.642,5.185,5.185,0,0,0-1.039-.2c-1.073-.067-2.145-.1-3.184-.134a11.121,11.121,0,0,1-2.782-.369,3.69,3.69,0,0,1-1.978-1.14A4.613,4.613,0,0,1,.249,20.353,5.768,5.768,0,0,1,2.126,17.37a16.968,16.968,0,0,1,3.888-2.648A55.237,55.237,0,0,1,14.192,11.5c.871-.268,1.709-.6,2.581-.871a.472.472,0,0,0,.335-.436c.067-.9.134-1.81.235-2.681a11.707,11.707,0,0,1,1.106-3.787A6.4,6.4,0,0,1,22.907.243,10.213,10.213,0,0,1,27.063.209a6.525,6.525,0,0,1,4.223,2.715,10.634,10.634,0,0,1,1.642,4.961c.1.771.134,1.575.2,2.346a.433.433,0,0,0,.3.436c.57.2,1.106.4,1.676.6a67.06,67.06,0,0,1,7.977,2.983,18.786,18.786,0,0,1,5.028,3.184,5.934,5.934,0,0,1,1.944,3.251,5.5,5.5,0,0,1,.067.771v.134l-.1.8a3.892,3.892,0,0,1-2.748,3.285,10.713,10.713,0,0,1-3.084.436c-1.073.034-2.145.067-3.218.168a3,3,0,0,0-1.475.436.9.9,0,0,0-.469.9,8.572,8.572,0,0,0,.168.9,25.959,25.959,0,0,0,1.91,4.022c1.173,2.145,2.38,4.257,3.553,6.4A35.59,35.59,0,0,1,47.24,44.72a11.842,11.842,0,0,1,.737,3.72,1.425,1.425,0,0,1-1.441,1.575,4.719,4.719,0,0,0-.972.034" transform="translate(2267.877 458.239)"/>
</svg>
