<?xml version="1.0" encoding="utf-8"?>
<!-- Generator: Adobe Illustrator 18.0.0, SVG Export Plug-In . SVG Version: 6.00 Build 0)  -->
<!DOCTYPE svg PUBLIC "-//W3C//DTD SVG 1.1//EN" "http://www.w3.org/Graphics/SVG/1.1/DTD/svg11.dtd">
<svg version="1.1" id="Calque_1" xmlns="http://www.w3.org/2000/svg" xmlns:xlink="http://www.w3.org/1999/xlink" x="0px" y="0px"
	 viewBox="0 0 595.3 841.9" enable-background="new 0 0 595.3 841.9" xml:space="preserve">
<path id="Tracé_66" fill="#C7C7C7" d="M541.2,712.7H397.1c-0.8-0.4-2-0.4-2.8-0.8c-3.5-0.6-7-1.4-10.4-2.4c-6.8-3-12.4-8.2-16-14.8
	c-9.5-14.8-18.8-29.9-27.9-45.1c-8.3-13.2-16.4-26.3-25.1-39.1c-3.4-5.6-8-10.2-13.6-13.6c-2.2-1.4-5-1.4-7.1,0
	c-3.9,2.6-7.4,5.8-10.4,9.5c-8.4,12-16.4,23.9-23.9,35.9c-10.7,17.2-21.1,34.7-32.3,51.9c-4.7,8.6-12.8,14.9-22.3,17.2
	c-2.4,0.5-4.7,0.7-7.1,0.8H54.3l-12-1.2c-7.6-1.2-15.2-4.4-16-14.4c-0.5-5.7-0.3-11.5,0.4-17.2c1.2-12.3,4.2-24.4,8.8-35.9
	c9.6-25.7,21.2-50.7,34.7-74.6c14.8-27.5,30.3-54.3,45.1-81.8c6.8-11.3,12-23.6,15.6-36.3c3.2-7,0-15.3-7-18.5
	c-1.1-0.5-2.2-0.8-3.4-1c-4-1.2-8.2-2-12.4-2.4c-12.8-0.8-25.5-1.2-37.9-1.6c-11.2-0.1-22.3-1.5-33.1-4.4
	c-9.1-1.9-17.3-6.7-23.5-13.6C1.5,395.7-3,376.9,1.7,359.2C5.2,345.3,13,332.9,24,323.7c13.9-12.6,29.5-23.2,46.3-31.5
	c31.4-15.4,63.9-28.2,97.4-38.4c10.4-3.2,20.3-7.1,30.7-10.4c2.3-0.7,3.9-2.8,4-5.2c0.8-10.7,1.6-21.5,2.8-31.9
	c1.8-15.7,6.3-30.9,13.2-45.1c10.3-21.3,29.9-36.6,53.1-41.5c16.3-3.5,33.1-3.7,49.5-0.4c20.4,3.6,38.5,15.3,50.3,32.3
	c11.3,17.8,18,38.1,19.5,59.1c1.2,9.2,1.6,18.8,2.4,27.9c-0.1,2.3,1.3,4.5,3.6,5.2c6.8,2.4,13.2,4.8,20,7.1
	c32.4,9.8,64.1,21.7,95,35.5c21.8,9.4,42,22.2,59.9,37.9c11.7,10,19.9,23.6,23.1,38.7c0.5,3,0.7,6.1,0.8,9.2v1.6l-1.2,9.5
	c-2.1,18.4-15,33.8-32.7,39.1c-11.9,3.5-24.3,5.3-36.7,5.2c-12.8,0.4-25.5,0.8-38.3,2c-6.2,0.2-12.3,2-17.6,5.2
	c-3.9,2.1-6.1,6.3-5.6,10.7c0.5,3.6,1.1,7.2,2,10.7c6.2,16.6,13.8,32.6,22.7,47.9c14,25.5,28.3,50.7,42.3,76.2
	c12.3,22,22.6,45,30.8,68.9c5.3,14.2,8.2,29.2,8.8,44.3c1,9.3-5.8,17.7-15.1,18.7c-0.7,0.1-1.4,0.1-2.1,0.1
	C548.9,712,545,712.2,541.2,712.7"/>
</svg>
