<svg xmlns="http://www.w3.org/2000/svg" xmlns:xlink="http://www.w3.org/1999/xlink" viewBox="4562.612 2403.5 13.884 13.884">
  <defs>
    <style>
      .cls-1 {
        fill: url(#linear-gradient);
      }

      .cls-2 {
        fill: #f2f4f6;
      }
    </style>
    <linearGradient id="linear-gradient" x1="0.5" x2="0.5" y2="1" gradientUnits="objectBoundingBox">
      <stop offset="0" stop-color="#3eb59e"/>
      <stop offset="1" stop-color="#0f7bba"/>
    </linearGradient>
  </defs>
  <g id="Groupe_549" data-name="Groupe 549" transform="translate(4562.612 2403.5)">
    <path id="Tracé_374" data-name="Tracé 374" class="cls-1" d="M6.942,0A7.011,7.011,0,0,1,12.16,2.363a6.814,6.814,0,0,1,1.724,4.579A6.942,6.942,0,1,1,6.942,0Z"/>
    <path id="Tracé_353" data-name="Tracé 353" class="cls-2" d="M14.125,13.4H11.8a.269.269,0,0,1-.179-.045c-.134-.045-.179-.134-.269-.224-.134-.224-.314-.493-.448-.717s-.269-.4-.4-.627a.54.54,0,0,0-.224-.224c-.045,0-.09-.045-.134,0s-.134.09-.179.134a6.551,6.551,0,0,0-.4.582,7.79,7.79,0,0,0-.493.806.556.556,0,0,1-.358.269H6.2a.284.284,0,0,1-.269-.224v-.269c.045-.179.09-.4.134-.582.179-.4.358-.761.582-1.164.224-.448.493-.851.717-1.3a2.25,2.25,0,0,0,.224-.582c.045-.179,0-.269-.179-.314-.045,0-.134-.045-.179-.045a2.554,2.554,0,0,1-.582-.045,1.136,1.136,0,0,1-.537-.09.615.615,0,0,1-.358-.224.859.859,0,0,1-.179-.806,1.154,1.154,0,0,1,.358-.582,3.422,3.422,0,0,1,.717-.493,10.927,10.927,0,0,1,1.523-.627c.179-.045.314-.134.493-.179.045,0,.045-.045.045-.09,0-.179.045-.358.045-.493a1.919,1.919,0,0,1,.224-.717,1.186,1.186,0,0,1,.851-.672,2.435,2.435,0,0,1,.806,0,1.3,1.3,0,0,1,.806.493,2.34,2.34,0,0,1,.314.941c0,.134.045.314.045.448,0,.045,0,.045.045.09a.83.83,0,0,0,.314.09,10.6,10.6,0,0,1,1.523.582,4.8,4.8,0,0,1,.941.582,1.109,1.109,0,0,1,.358.627v.314a.716.716,0,0,1-.537.627,2.621,2.621,0,0,1-.582.09,2.957,2.957,0,0,0-.627.045.637.637,0,0,0-.269.09.233.233,0,0,0-.09.179.269.269,0,0,0,.045.179,5.83,5.83,0,0,0,.358.761l.672,1.209a11.453,11.453,0,0,1,.493,1.075,1.857,1.857,0,0,1,.134.717.3.3,0,0,1-.269.314.179.179,0,0,1-.179.09" transform="translate(-3.287 -2.336)"/>
  </g>
</svg>
