<svg xmlns="http://www.w3.org/2000/svg" viewBox="2426 801.133 45.048 57.977">
  <defs>
    <style>
      .cls-1 {
        fill: #fff;
      }

      .cls-2 {
        fill: #c7c7c7;
      }
    </style>
  </defs>
  <g id="Groupe_106" data-name="Groupe 106" transform="translate(2426.069 801.132)">
    <g id="Groupe_106-2" data-name="Groupe 106" transform="translate(-0.069 0.001)">
      <path id="Tracé_83" data-name="Tracé 83" class="cls-1" d="M22.443,22.849H34.638A6.876,6.876,0,0,1,39.7,24.591a5.879,5.879,0,0,1-3.889,10.088c-2.188.081-4.375,0-6.6,0-.608,0-.81.122-.81.729,0,5.672.041,11.343.041,17.056,0,.972-.041,1.945-.041,2.917a2.709,2.709,0,0,0,.2.77c.243-.122.446-.2.689-.324a.559.559,0,0,0,.162-.122c1.62-1.175,3.241-2.309,4.861-3.484,2.836-2.066,5.712-4.092,8.548-6.158.527-.405,1.094-.77,1.661-1.134.567-.405.446-.972.446-1.58v-19.2A29.883,29.883,0,0,0,44.4,17.3a24.822,24.822,0,0,0-2.876-6.847A22.462,22.462,0,0,0,38.081,6.28a23.33,23.33,0,0,0-6.239-4.254,21.152,21.152,0,0,0-5.429-1.7,22.942,22.942,0,0,0-10.857.77A22.332,22.332,0,0,0,7.737,5.51a23.553,23.553,0,0,0-4.861,5.915A20.546,20.546,0,0,0,.04,21.472C-.041,28.157.04,34.882,0,41.566a18.283,18.283,0,0,0-.041,2.107,1.655,1.655,0,0,0,.527,1.094c1.175.972,2.431,1.823,3.646,2.714,1.742,1.256,3.484,2.471,5.226,3.727,1.62,1.134,3.2,2.309,4.78,3.484.527.405,1.053.81,1.62,1.215a2.163,2.163,0,0,0,.729.2,3.793,3.793,0,0,0,.162-.648c0-.324-.041-.689-.041-1.013V45.7c0-3.363,0-6.766.041-10.128,0-.729-.122-.891-.851-.891H9.642a5.933,5.933,0,0,1-5.307-2.957,5.786,5.786,0,0,1,1.539-7.657,6.532,6.532,0,0,1,4.132-1.215Zm-.041.972h0c-4.254,0-8.548-.041-12.8,0a4.844,4.844,0,0,0-4.375,2.309,4.674,4.674,0,0,0-.2,4.861,4.517,4.517,0,0,0,4.213,2.593c2.552,0,5.064,0,7.616-.041a.6.6,0,0,1,.689.608c.041.486.081.932.081,1.418,0,3.119,0,6.239-.041,9.358,0,3.97-.041,7.94-.041,11.911a2.371,2.371,0,0,0,.081.527.748.748,0,0,0,.81.608,1.229,1.229,0,0,0,.689-.527,1.644,1.644,0,0,0,.162-.77V33.261c0-1.053-.405-1.418-1.418-1.377-.891.041-1.823,0-2.714,0-1.945,0-3.889-.041-5.834,0A3.026,3.026,0,0,1,6.6,30.263a3.117,3.117,0,0,1,2.188-4.7,23.385,23.385,0,0,1,2.917-.081H35.164a4.834,4.834,0,0,1,1.5.243,3.241,3.241,0,0,1,2.066,3.363,3.2,3.2,0,0,1-3.322,2.8c-2.876.041-5.753,0-8.67.041-.81,0-1.134.284-1.134,1.134V55.381c0,.608,0,1.175.041,1.783a.739.739,0,0,0,.972.77c.567-.122.689-.567.689-1.013a8.468,8.468,0,0,0-.041-1.013V45.739c0-3.687,0-7.373-.041-11.06,0-.81.243-1.094,1.053-1.094h7.09a4.67,4.67,0,0,0,4.578-2.8,4.933,4.933,0,0,0-1.013-5.55,5.817,5.817,0,0,0-4.092-1.418Z" transform="translate(0.069 -0.001)"/>
      <path id="Tracé_84" data-name="Tracé 84" class="cls-2" d="M22.443,22.849h-12.4a6.532,6.532,0,0,0-4.132,1.215,5.714,5.714,0,0,0-1.58,7.657,5.969,5.969,0,0,0,5.307,2.957H15.8c.729,0,.891.2.851.891-.041,3.363-.041,6.766-.041,10.128v8.751c0,.324.041.689.041,1.013a1.907,1.907,0,0,1-.162.648,3.834,3.834,0,0,1-.729-.2c-.567-.365-1.053-.81-1.62-1.215-1.58-1.175-3.2-2.35-4.78-3.484-1.742-1.256-3.484-2.471-5.226-3.727C2.916,46.59,1.661,45.7.486,44.767a1.859,1.859,0,0,1-.527-1.094A18.283,18.283,0,0,1,0,41.566C.04,34.882-.041,28.157.04,21.472A20.546,20.546,0,0,1,2.876,11.425,21.459,21.459,0,0,1,7.737,5.51a22.332,22.332,0,0,1,7.819-4.416A22.942,22.942,0,0,1,26.414.325a21.152,21.152,0,0,1,5.429,1.7,22.985,22.985,0,0,1,6.2,4.213,22.462,22.462,0,0,1,3.444,4.173,23.829,23.829,0,0,1,2.876,6.847,27.939,27.939,0,0,1,.567,6.847v19.2c0,.608.122,1.175-.446,1.58-.567.365-1.094.77-1.661,1.134-2.836,2.066-5.712,4.092-8.548,6.158-1.62,1.175-3.241,2.309-4.861,3.484-.041.041-.122.122-.162.122-.243.122-.446.2-.689.324a2.709,2.709,0,0,1-.2-.77c0-.972.041-1.945.041-2.917,0-5.672,0-11.343-.041-17.056,0-.608.162-.729.81-.729,2.188,0,4.375.081,6.6,0a5.911,5.911,0,0,0,5.024-3.2,5.793,5.793,0,0,0-1.134-6.887A7.048,7.048,0,0,0,34.6,22.809c-4.011.041-8.1.041-12.154.041Z" transform="translate(0.069 -0.001)"/>
      <path id="Tracé_85" data-name="Tracé 85" class="cls-2" d="M29.019,58.785H41.537A5.817,5.817,0,0,1,45.629,60.2a4.877,4.877,0,0,1,1.013,5.55,4.67,4.67,0,0,1-4.578,2.8h-7.09c-.81,0-1.053.284-1.053,1.094,0,3.687.041,7.373.041,11.06V90.871A8.468,8.468,0,0,1,34,91.884c-.041.446-.122.932-.689,1.013-.608.122-.972-.162-.972-.77-.041-.608,0-1.175-.041-1.783V68.022c0-.81.284-1.134,1.134-1.134,2.876,0,5.753,0,8.67-.041a3.2,3.2,0,0,0,3.322-2.8,3.273,3.273,0,0,0-2.066-3.363,4.834,4.834,0,0,0-1.5-.243H18.4a23.169,23.169,0,0,0-2.917.081,3.188,3.188,0,0,0,.527,6.32h8.548c1.013-.041,1.418.324,1.418,1.377V91.641a1.644,1.644,0,0,1-.162.77,1.229,1.229,0,0,1-.689.527.773.773,0,0,1-.81-.608,2.371,2.371,0,0,1-.081-.527c0-3.97.041-7.94.041-11.911,0-3.119.041-6.239.041-9.358,0-.486-.041-.932-.081-1.418a.6.6,0,0,0-.689-.608c-2.593.081-5.145.081-7.7.081A4.542,4.542,0,0,1,11.639,66a4.67,4.67,0,0,1,.2-4.861,4.844,4.844,0,0,1,4.375-2.309c4.254-.081,8.508-.041,12.8-.041Z" transform="translate(-6.547 -34.964)"/>
    </g>
  </g>
</svg>
