<?xml version="1.0" encoding="utf-8"?>
<!-- Generator: Adobe Illustrator 18.0.0, SVG Export Plug-In . SVG Version: 6.00 Build 0)  -->
<!DOCTYPE svg PUBLIC "-//W3C//DTD SVG 1.1//EN" "http://www.w3.org/Graphics/SVG/1.1/DTD/svg11.dtd">
<svg version="1.1" id="Calque_1" xmlns="http://www.w3.org/2000/svg" xmlns:xlink="http://www.w3.org/1999/xlink" x="0px" y="0px"
	 viewBox="0 0 595.3 841.9" enable-background="new 0 0 595.3 841.9" xml:space="preserve">
<g id="Groupe_106" transform="translate(2426.069 801.132)">
	<g id="Groupe_106-2" transform="translate(-0.069 0.001)">
		<path id="Tracé_83" fill="#C7C7C7" d="M-2128.6-461.3h161.1c24.5-1.7,48.6,6.6,66.9,23c30.7,29.9,31.4,79.1,1.5,109.9
			c-13.9,14.3-32.9,22.7-52.9,23.5c-28.9,1.1-57.8,0-87.2,0c-8,0-10.7,1.6-10.7,9.6c0,75,0.5,149.9,0.5,225.4
			c0,12.8-0.5,25.7-0.5,38.5c0.4,3.5,1.3,6.9,2.6,10.2c3.2-1.6,5.9-2.6,9.1-4.3c0.8-0.4,1.5-0.9,2.1-1.6
			c21.4-15.5,42.8-30.5,64.2-46c37.5-27.3,75.5-54.1,113-81.4c7-5.4,14.5-10.2,21.9-15c7.5-5.4,5.9-12.8,5.9-20.9v-253.7
			c1-30.4-1.5-60.7-7.5-90.5c-8.1-31.9-20.9-62.4-38-90.5c-12.9-20.1-28.2-38.7-45.5-55.1c-24.2-23.1-52.1-42.1-82.4-56.2
			c-22.8-10.7-46.9-18.2-71.7-22.5c-47.9-8.2-97.2-4.7-143.5,10.2c-38,12.2-73.2,32.1-103.3,58.3c-25.5,22.4-47.2,48.8-64.2,78.2
			c-23.7,40.3-36.6,86-37.5,132.8c-1.1,88.3,0,177.2-0.5,265.5c-0.7,9.3-0.9,18.6-0.5,27.8c0.4,5.5,2.9,10.7,7,14.5
			c15.5,12.8,32.1,24.1,48.2,35.9c23,16.6,46,32.7,69.1,49.2c21.4,15,42.3,30.5,63.2,46c7,5.4,13.9,10.7,21.4,16.1
			c3,1.4,6.3,2.3,9.6,2.6c1-2.8,1.7-5.7,2.1-8.6c0-4.3-0.5-9.1-0.5-13.4v-115.6c0-44.4,0-89.4,0.5-133.8c0-9.6-1.6-11.8-11.2-11.8
			h-81.3c-28.8,0.8-55.7-14.2-70.1-39.1c-20.4-33.9-11.6-77.8,20.3-101.2c15.9-11.4,35.1-17,54.6-16.1L-2128.6-461.3z
			 M-2129.2-448.5L-2129.2-448.5c-56.2,0-113-0.5-169.1,0c-23.4-1.2-45.6,10.5-57.8,30.5c-12.8,19.2-13.9,44-2.6,64.2
			c10.1,21.5,32,34.9,55.7,34.3c33.7,0,66.9,0,100.6-0.5c4.3-0.7,8.4,2.3,9,6.7c0.1,0.5,0.1,0.9,0.1,1.4c0.5,6.4,1.1,12.3,1.1,18.7
			c0,41.2,0,82.4-0.5,123.7c0,52.5-0.5,104.9-0.5,157.4c0.1,2.4,0.5,4.7,1.1,7c0.9,5.1,5.6,8.5,10.7,8c3.8-1.1,7-3.6,9.1-7
			c1.5-3.2,2.3-6.7,2.1-10.2v-309.4c0-13.9-5.4-18.7-18.7-18.2c-11.8,0.5-24.1,0-35.9,0c-25.7,0-51.4-0.5-77.1,0
			c-15.1,0.2-29-8.1-35.9-21.4c-11.8-19.4-5.6-44.8,13.8-56.6c4.6-2.8,9.8-4.7,15.1-5.5c12.8-1.2,25.7-1.5,38.5-1.1h310
			c6.7,0,13.4,1.1,19.8,3.2c18.1,6.9,29.3,25.2,27.3,44.4c-2.7,21.9-21.9,38-43.9,37c-38,0.5-76,0-114.6,0.5c-10.7,0-15,3.8-15,15
			v294.9c0,8,0,15.5,0.5,23.6c-0.5,5.4,3.4,10.1,8.8,10.6c1.4,0.1,2.7,0,4-0.5c7.5-1.6,9.1-7.5,9.1-13.4c0.1-4.5-0.1-8.9-0.5-13.4
			v-134.4c0-48.7,0-97.4-0.5-146.2c0-10.7,3.2-14.5,13.9-14.5h93.7c25.9,1.6,50.1-13.2,60.5-37c11.3-24.8,6-54.1-13.4-73.3
			c-14.9-13-34.3-19.7-54.1-18.7L-2129.2-448.5z"/>
		<linearGradient id="Tracé_84_1_" gradientUnits="userSpaceOnUse" x1="-2425.9348" y1="-392.5298" x2="-1831.191" y2="-392.5298">
			<stop  offset="0" style="stop-color:#3EB59D"/>
			<stop  offset="1" style="stop-color:#0E77BA"/>
		</linearGradient>
		<path id="Tracé_84" fill="url(#Tracé_84_1_)" d="M-2128.6-461.3h-163.9c-19.5-1-38.7,4.7-54.6,16.1
			c-32.6,22.9-41.7,67.2-20.9,101.2c14.5,24.8,41.4,39.8,70.1,39.1h81.4c9.6,0,11.8,2.6,11.2,11.8c-0.5,44.4-0.5,89.4-0.5,133.8
			v115.6c0,4.3,0.5,9.1,0.5,13.4c-0.2,3-0.9,5.9-2.1,8.6c-3.3-0.6-6.5-1.4-9.6-2.6c-7.5-4.8-13.9-10.7-21.4-16.1
			c-20.9-15.5-42.3-31.1-63.2-46c-23-16.6-46-32.7-69.1-49.2c-16.1-11.8-32.7-23.6-48.2-35.9c-3.9-3.9-6.3-9-7-14.5
			c-0.4-9.3-0.2-18.6,0.5-27.8c0.5-88.3-0.5-177.2,0.5-265.5c0.9-46.7,13.8-92.5,37.5-132.8c16.6-29.7,38.3-56.2,64.2-78.2
			c30.1-26.2,65.3-46.1,103.3-58.4c46.3-14.8,95.5-18.3,143.5-10.2c24.8,4.2,48.9,11.8,71.7,22.5c30.2,13.9,57.8,32.8,81.9,55.7
			c17.3,16.5,32.6,35,45.5,55.1c17.3,28,30.1,58.5,38,90.5c6.2,29.7,8.7,60.1,7.5,90.5V-191c0,8,1.6,15.5-5.9,20.9
			c-7.5,4.8-14.5,10.2-21.9,15c-37.5,27.3-75.5,54.1-113,81.4c-21.4,15.5-42.8,30.5-64.2,46c-0.5,0.5-1.6,1.6-2.1,1.6
			c-3.2,1.6-5.9,2.6-9.1,4.3c-1.4-3.2-2.3-6.7-2.6-10.2c0-12.8,0.5-25.7,0.5-38.5c0-75,0-149.9-0.5-225.4c0-8,2.1-9.6,10.7-9.6
			c28.9,0,57.8,1.1,87.2,0c28.1-1.1,53.5-17.3,66.4-42.3c15.9-30.3,9.8-67.4-15-91c-18.4-16.2-42.4-24.4-66.9-23
			C-2021-461.3-2075-461.3-2128.6-461.3L-2128.6-461.3z"/>
		
			<linearGradient id="Tracé_85_1_" gradientUnits="userSpaceOnUse" x1="-2366.5972" y1="-222.8296" x2="-1890.2617" y2="-222.8296">
			<stop  offset="0" style="stop-color:#3EB59D"/>
			<stop  offset="1" style="stop-color:#0E77BA"/>
		</linearGradient>
		<path id="Tracé_85" fill="url(#Tracé_85_1_)" d="M-2129.2-448.5h165.4c19.8-1,39.1,5.7,54.1,18.7c19.6,19.1,25,48.5,13.4,73.3
			c-10.4,23.8-34.5,38.6-60.5,37h-93.7c-10.7,0-13.9,3.8-13.9,14.5c0,48.7,0.5,97.4,0.5,146.2v134.4c0.4,4.4,0.6,8.9,0.5,13.4
			c-0.5,5.9-1.6,12.3-9.1,13.4c-8,1.6-12.8-2.1-12.8-10.2c-0.5-8,0-15.5-0.5-23.6v-295c0-10.7,3.8-15,15-15c38,0,76,0,114.6-0.5
			c22,1,41.2-15.1,43.9-37c1.9-19.3-9.3-37.4-27.3-44.4c-6.4-2.1-13.1-3.2-19.8-3.2h-310c-12.9-0.5-25.7-0.1-38.5,1.1
			c-22.9,4.3-37.9,26.3-33.6,49.2c3.7,19.6,20.6,33.9,40.5,34.3h113c13.4-0.5,18.7,4.3,18.7,18.2v309.5c0.1,3.5-0.6,7-2.1,10.2
			c-2.1,3.4-5.3,5.8-9.1,7c-5.1,0.4-9.6-3.1-10.7-8c-0.6-2.3-1-4.6-1.1-7c0-52.5,0.5-104.9,0.5-157.4c0-41.2,0.5-82.4,0.5-123.7
			c0-6.4-0.5-12.3-1.1-18.7c0.1-4.4-3.4-8-7.7-8.1c-0.5,0-0.9,0-1.4,0.1c-34.3,1.1-68,1.1-101.8,1.1c-23.7,0.6-45.4-12.8-55.6-34.2
			c-11.2-20.2-10.2-45,2.6-64.2c12.2-20,34.4-31.7,57.8-30.5C-2242.2-448.9-2186-448.4-2129.2-448.5L-2129.2-448.5z"/>
	</g>
</g>
</svg>
