<?xml version="1.0" encoding="utf-8"?>
<!-- Generator: Adobe Illustrator 18.0.0, SVG Export Plug-In . SVG Version: 6.00 Build 0)  -->
<!DOCTYPE svg PUBLIC "-//W3C//DTD SVG 1.1//EN" "http://www.w3.org/Graphics/SVG/1.1/DTD/svg11.dtd">
<svg version="1.1" id="Calque_1" xmlns="http://www.w3.org/2000/svg" xmlns:xlink="http://www.w3.org/1999/xlink" x="0px" y="0px"
	 viewBox="0 0 595.3 841.9" enable-background="new 0 0 595.3 841.9" xml:space="preserve">
<g id="Groupe_105" transform="translate(2274 676.77)">
	<path id="Tracé_79" fill="#C7C7C7" d="M-1722.1-670.6h-508.5c-24.3,0.4-43.8,20.4-43.4,44.7c0,0.5,0,1,0,1.4v737.2
		c-1,24.5,18.1,45.2,42.6,46.2c0.3,0,0.5,0,0.8,0h508.5c24.2-0.2,43.6-19.9,43.4-44c0-0.7,0-1.4-0.1-2.1v-737.2
		c1.2-24.3-17.6-45-41.9-46.1C-1721.1-670.6-1721.6-670.6-1722.1-670.6z"/>
	<rect id="Rectangle_185" x="-2206.4" y="-175" fill="#FFFFFF" width="466.9" height="264.1"/>
	<rect id="Rectangle_186" x="-2206.4" y="-622.7" fill="#FFFFFF" width="466.9" height="69.8"/>
	<g id="Groupe_104" transform="translate(5.563 21.987)">
		<g id="Groupe_103">
			<path id="Tracé_80" fill="#FFFFFF" d="M-2168.6-265.1c-1.6-2-1.3-4.9,0.7-6.5c0.1-0.1,0.3-0.2,0.4-0.3l16.3-10.7l-48.4-66.5
				c-0.6-1-1-2.2-1.1-3.4l1.7-23.1c0-1.6,0.9-3.1,2.3-3.9c0.3-0.3,0.7-0.5,1.1-0.6c1.3-1,3-1.3,4.5-0.6l20.3,8.5
				c1.2,0.4,2.2,1.2,2.8,2.3l36,74.3l16.3-10.8c1.9-1.5,4.7-1.2,6.2,0.8c0.2,0.3,0.4,0.6,0.6,0.9l3.4,5.7c1.4,2.2,0.8,5.1-1.3,6.5
				c-0.1,0.1-0.2,0.2-0.4,0.2l-15.8,10.7l10.1,16.3c6,0.5,11.5,3.8,14.6,9c5.8,9.2,3.3,21.4-5.7,27.6c-8.3,5.8-19.7,3.7-25.5-4.6
				c-0.4-0.5-0.7-1.1-1-1.6c-3.3-5.4-3.9-12.1-1.7-18l-9.6-16.3l-16.3,10.7c-1.6,1.4-4,1.3-5.4-0.3c-0.4-0.4-0.6-0.9-0.8-1.4
				L-2168.6-265.1z"/>
		</g>
	</g>
	<path id="Tracé_81" fill="#FFFFFF" d="M-1808.8-347.3c-1.4-0.6-3.1-0.6-4.5,0l-51.2,18.6c-3.7,1.4-6,5.1-5.7,9
		c1.7,80,33.8,101.4,56.9,114.3c1.1,0.6,2.3,0.6,3.4,0c23.1-13,55.2-34.4,56.9-114.3c0-3.8-2.2-7.3-5.7-9L-1808.8-347.3z"/>
	<rect id="Rectangle_187" x="-2149" y="-133.3" fill="#C7C7C7" width="360.4" height="11.3"/>
	<rect id="Rectangle_188" x="-2149" y="-93.4" fill="#C7C7C7" width="360.4" height="11.3"/>
	<rect id="Rectangle_189" x="-2149" y="-48.9" fill="#C7C7C7" width="360.4" height="11.3"/>
	<rect id="Rectangle_190" x="-2149" y="-12.3" fill="#C7C7C7" width="360.4" height="11.3"/>
	<rect id="Rectangle_191" x="-2149" y="27.7" fill="#C7C7C7" width="360.4" height="11.3"/>
</g>
</svg>
